<svg width="192" height="192" version="1.1" xmlns="http://www.w3.org/2000/svg" desc="Created with imagetracer.js version 1.2.6" ><path fill="rgb(251,250,252)" stroke="rgb(251,250,252)" stroke-width="1" opacity="1" d="M 136.5 33 L 140 34.5 L 140.5 36 L 141.5 35 L 144.5 38 L 147 38 Q 145.8 41 149.5 40 L 149 41.5 L 149.5 43 L 151.5 43 L 155 45.5 L 156 50.5 L 155 52.5 L 156 54.5 L 153.5 56 L 154 54.5 L 153 50 Q 156 51.3 155 47.5 L 149 44.5 Q 149.7 41.9 147 43 L 147 40 L 145.5 40 L 143 39.5 Q 143.8 37.3 141.5 38 L 139 37.5 L 139.5 36 L 135.5 37 L 134 34.5 L 136.5 33 Z " /><path fill="rgb(251,250,252)" stroke="rgb(251,250,252)" stroke-width="1" opacity="1" d="M 65.5 36 L 68.5 37 L 73 36 Q 71.9 38.7 74.5 38 L 74.5 36 L 78.5 36 Q 79.8 38.8 84 38.5 L 81 40.5 L 82.5 43 Q 84.8 42.3 84 44.5 L 83 47 Q 80.3 48.1 81 45.5 Q 78.3 44.3 78.5 40 Q 77 42.5 75.5 39 L 66.5 38 L 64.5 39 L 63.5 38 L 61 39.5 L 62.5 37 L 65.5 36 Z M 77 37 L 77 39 L 80 40 L 80 39 L 77 37 Z " /><path fill="rgb(251,250,252)" stroke="rgb(251,250,252)" stroke-width="1" opacity="1" d="M 56.5 40 Q 58.8 39.3 58 41.5 L 54.5 44 L 55.5 42 L 57 41.5 L 56.5 40 Z " /><path fill="rgb(251,250,252)" stroke="rgb(251,250,252)" stroke-width="1" opacity="1" d="M 52.5 43 L 53 44.5 L 51.5 47 L 49.5 47 L 47 46.5 L 50 46 Q 48.9 43.3 51.5 44 L 52.5 43 Z " /><path fill="rgb(251,250,252)" stroke="rgb(251,250,252)" stroke-width="1" opacity="1" d="M 109 44 Q 112.8 42.5 112 45.5 L 114 48.5 L 112 48.5 Q 111.5 51.5 118.5 50 L 121 48.5 L 120.5 50 Q 123.8 51.1 123 48.5 L 122.5 47 L 125.5 48 L 128.5 46 L 131.5 48 Q 132.8 45.7 134 48.5 L 133.5 50 Q 135.8 50.8 135 48.5 L 137 47.5 Q 134.5 49 138 50.5 Q 137.3 52.8 139.5 52 L 140.5 54 L 138.5 53 L 139 54.5 L 139.5 57 L 140.5 55 L 142 57.5 Q 139.8 58.8 142.5 60 L 149 61 Q 147.5 64.8 150.5 64 L 151.5 66 L 143 64.5 L 146 64 Q 147.3 60.3 141.5 62 L 139.5 62 L 136 58.5 Q 137.9 53.1 134.5 54 Q 133 50.5 131.5 53 L 119.5 52 L 116.5 53 L 111 49.5 L 109 44 Z " /><path fill="rgb(251,250,252)" stroke="rgb(251,250,252)" stroke-width="1" opacity="1" d="M 45 48 L 48 48.5 L 46.5 51 L 45 48 Z " /><path fill="rgb(251,250,252)" stroke="rgb(251,250,252)" stroke-width="1" opacity="1" d="M 66.5 48 L 68.5 49 L 71 48 Q 69.8 51 73.5 50 L 73.5 52 L 76.5 51 L 76.5 52 L 73.5 53 Q 71.8 50.3 65.5 52 Q 67.2 54.2 63 56.5 L 62.5 61 L 58.5 59 L 56 65 L 53 66.5 Q 53.5 70.5 50.5 71 Q 49.3 68.8 44.5 70 L 43 68.5 L 44.5 66 L 45 69 L 51 69 L 51 67 L 47.5 68 L 46.5 66 Q 51.3 67.7 50 63.5 L 52 60 Q 55 61.3 54 57.5 L 57.5 56 Q 58.8 58.3 60 55.5 L 59.5 54 L 61 53.5 L 59 52.5 L 63.5 50 L 68 49.5 L 66.5 48 Z " /><path fill="rgb(251,250,252)" stroke="rgb(251,250,252)" stroke-width="1" opacity="1" d="M 81.5 49 Q 84.8 47.9 84 50.5 L 85 53 Q 79.6 54.5 78 51.5 L 81.5 49 Z " /><path fill="rgb(251,250,252)" stroke="rgb(251,250,252)" stroke-width="1" opacity="1" d="M 40.5 52 L 41 54.5 L 40 54.5 L 40.5 52 Z " /><path fill="rgb(251,250,252)" stroke="rgb(251,250,252)" stroke-width="1" opacity="1" d="M 42.5 56 L 43.5 58 Q 40.7 58.7 42.5 56 Z " /><path fill="rgb(251,250,252)" stroke="rgb(251,250,252)" stroke-width="1" opacity="1" d="M 152.5 57 L 153.5 62 L 155 59.5 L 154.5 58 Q 157.2 59.3 155 60.5 Q 156.3 64.3 152.5 63 L 150.5 60 L 152 60.5 L 152.5 57 Z " /><path fill="rgb(251,250,252)" stroke="rgb(251,250,252)" stroke-width="1" opacity="1" d="M 39.5 58 L 44 60.5 L 41 62 L 39.5 58 Z " /><path fill="rgb(251,250,252)" stroke="rgb(251,250,252)" stroke-width="1" opacity="1" d="M 73.5 62 L 78 62.5 L 73.5 63 L 73.5 62 Z " /><path fill="rgb(251,250,252)" stroke="rgb(251,250,252)" stroke-width="1" opacity="1" d="M 124.5 62 Q 128.5 63.7 127 70 Q 124.9 68.4 119.5 69 L 118 69.5 Q 116.8 63.4 119.5 64 L 124.5 62 Z M 125 65 L 123 68 L 125 67 L 125 65 Z " /><path fill="rgb(251,250,252)" stroke="rgb(251,250,252)" stroke-width="1" opacity="1" d="M 43.5 63 L 44 65 L 42 64.5 L 43.5 63 Z " /><path fill="rgb(251,250,252)" stroke="rgb(251,250,252)" stroke-width="1" opacity="1" d="M 154.5 65 Q 156.8 64.3 156 66.5 L 154.5 65 Z " /><path fill="rgb(251,250,252)" stroke="rgb(251,250,252)" stroke-width="1" opacity="1" d="M 73.5 66 Q 78.3 64.7 77 68 L 72 69 L 73.5 66 Z " /><path fill="rgb(251,250,252)" stroke="rgb(251,250,252)" stroke-width="1" opacity="1" d="M 64 69 L 68.5 70 L 70.5 69 L 70.5 70 L 67.5 72 L 67 76.5 L 68 79.5 L 67 84 L 64 84 L 64 76.5 L 61 72.5 L 64 71 L 64 69 Z M 66 71 L 64 73 Q 63 75 66 74 L 66 71 Z " /><path fill="rgb(251,250,252)" stroke="rgb(251,250,252)" stroke-width="1" opacity="1" d="M 114.5 69 L 115 71.5 L 112 72.5 L 112 75 Q 114.7 73.9 114 76.5 L 114 78.5 Q 114.8 80.8 112.5 80 L 111 80.5 L 112 78.5 L 109 77 L 107 71.5 L 110.5 70 L 112.5 71 L 114.5 69 Z " /><path fill="rgb(251,250,252)" stroke="rgb(251,250,252)" stroke-width="1" opacity="1" d="M 78.5 70 Q 81.5 69.2 80 73 L 82 73 L 82 75.5 L 80 76.5 L 78.5 70 Z " /><path fill="rgb(251,250,252)" stroke="rgb(251,250,252)" stroke-width="1" opacity="1" d="M 126.5 74 L 127.5 76 L 126.5 74 Z " /><path fill="rgb(251,250,252)" stroke="rgb(251,250,252)" stroke-width="1" opacity="1" d="M 79 78 Q 81.7 76.9 81 79.5 L 79 83.5 Q 79.8 85.8 77.5 85 L 74.5 86 L 69 83.5 L 76.5 80 L 77.5 82 L 79 78 Z " /><path fill="rgb(251,250,252)" stroke="rgb(251,250,252)" stroke-width="1" opacity="1" d="M 108.5 96 L 111 99.5 L 109 98.5 L 108.5 96 Z " /><path fill="rgb(251,250,252)" stroke="rgb(251,250,252)" stroke-width="1" opacity="1" d="M 93.5 97 L 99 98.5 L 93.5 100 L 91.5 99 Q 89.2 101.7 83.5 101 L 81.5 103 L 79 102.5 L 79.5 101 L 74 103 L 74 105 L 68.5 105 L 68 107 L 65.5 107 L 63 108 L 62.5 110 L 60.5 107 L 63 106.5 L 62 104 Q 66.5 105.5 65 101 L 70.5 101 L 81.5 98 L 87.5 98 L 90.5 99 L 93.5 97 Z M 69 102 L 69 104 L 72 103 L 69 102 Z M 64 105 L 65 107 L 67 106 L 64 105 Z " /><path fill="rgb(251,250,252)" stroke="rgb(251,250,252)" stroke-width="1" opacity="1" d="M 100.5 98 L 103 98.5 L 100.5 99 L 100.5 98 Z " /><path fill="rgb(251,250,252)" stroke="rgb(251,250,252)" stroke-width="1" opacity="1" d="M 113 98 L 119 99.5 L 118.5 102 Q 115.2 103.1 116 100.5 L 114.5 101 Q 111.5 101.7 113 98 Z " /><path fill="rgb(251,250,252)" stroke="rgb(251,250,252)" stroke-width="1" opacity="1" d="M 120.5 99 L 126 100.5 L 123.5 101 L 120.5 100 L 120.5 99 Z " /><path fill="rgb(251,250,252)" stroke="rgb(251,250,252)" stroke-width="1" opacity="1" d="M 128.5 100 Q 133.3 98.7 132 102 L 130 102.5 L 133 103 L 134.5 100 L 136.5 103 L 138 103.5 L 131.5 106 L 130.5 104 Q 129.3 106.3 128 103.5 L 129.5 101 L 128.5 100 Z " /><path fill="rgb(251,250,252)" stroke="rgb(251,250,252)" stroke-width="1" opacity="1" d="M 135.5 106 L 136 108.5 L 135 108.5 L 135.5 106 Z " /><path fill="rgb(251,250,252)" stroke="rgb(251,250,252)" stroke-width="1" opacity="1" d="M 57.5 107 Q 61.2 109 59.5 111 L 61 111.5 L 58.5 113 L 56.5 112 L 55.5 114 L 59 115.5 L 54 119.5 L 57 120.5 L 54.5 122 L 53 119.5 L 53 117.5 L 54 112.5 L 53 108 Q 56 106.8 55 110.5 L 57 109.5 L 57.5 107 Z " /><path fill="rgb(251,250,252)" stroke="rgb(251,250,252)" stroke-width="1" opacity="1" d="M 139 108 L 142.5 108 L 146 110 L 145.5 113 L 142.5 109 L 141 109 L 141 113 Q 144.8 112.3 146 115.5 L 145 119.5 L 146 121.5 L 146 123.5 L 145 125.5 L 148 127.5 L 145 129 L 144.5 136 L 143.5 134 L 141.5 138 L 142 136.5 L 144 128.5 L 143 125.5 L 144 123.5 L 142 119.5 L 141 115.5 L 141.5 114 Q 138.5 114.9 140 110.5 L 139 108 Z " /><path fill="rgb(251,250,252)" stroke="rgb(251,250,252)" stroke-width="1" opacity="1" d="M 94.5 111 L 96.5 112 L 100.5 111 L 105.5 113 L 110.5 112 L 113 112.5 L 112 114.5 L 115.5 115 L 115.5 114 Q 113.3 114.8 114 112.5 L 118 111.5 L 116.5 114 L 123.5 116 L 125 115.5 L 125 117.5 Q 124.3 119.8 126.5 119 Q 130.2 121 128.5 123 L 130 123 Q 128.5 126.7 131.5 126 L 130.5 128 Q 129.3 125.8 128 128.5 L 129 134 Q 126.3 132.9 127 135.5 L 128 137.5 L 127 137.5 L 124.5 134 L 119.5 136 L 118.5 134 L 121 133.5 L 116.5 128 L 113.5 129 L 111.5 127 L 104 127 L 103.5 129 L 101.5 129 Q 97.1 130.5 98 127.5 L 97.5 126 L 104 125.5 L 103.5 124 Q 106.1 123.3 105 126 L 109.5 126 Q 111 123.5 112.5 127 L 117.5 126 L 118.5 128 L 120.5 124 L 123 125.5 Q 122.3 123.3 124.5 124 L 122.5 127 L 121 127.5 Q 122.2 130.3 123.5 128 L 127 127.5 Q 124.8 126.2 127.5 125 L 129 125.5 Q 129.7 122.5 126 124 L 126 121.5 L 126.5 120 L 124.5 121 L 124 118 L 118.5 115 L 116.5 117 L 103.5 117 L 96.5 115 L 93.5 116 L 91.5 116 L 88 115.5 L 90 114.5 L 89.5 113 Q 91 115.5 92.5 112 L 94.5 111 Z M 96 112 Q 94 115 97 114 L 96 112 Z M 101 112 L 99 114 L 102 114 L 101 112 Z M 106 114 L 106 115 L 108 115 L 106 114 Z M 120 129 L 121 131 Q 122 128 120 129 Z " /><path fill="rgb(251,250,252)" stroke="rgb(251,250,252)" stroke-width="1" opacity="1" d="M 77.5 119 L 81 120.5 L 78.5 122 L 77 121.5 L 78 125 L 81.5 124 Q 83 127.5 84.5 125 L 87.5 124 L 88.5 126 Q 83.5 125.5 83 129.5 L 82 133 L 84 133.5 L 79 137.5 L 81 143 Q 85.1 141.7 84 145 L 82 145.5 L 84.5 146 L 87.5 144 L 88 146 L 90 146 Q 88.9 148.7 91.5 148 L 91.5 149 L 86.5 150 L 86 148.5 L 86.5 147 Q 80.3 147.7 78 144.5 L 80 144 L 79.5 142 L 76 143 L 74 139.5 L 74 135 L 80 136 L 80 133 Q 77 134 78 131 L 80 130.5 L 79 128.5 L 79.5 127 L 74.5 128 L 72 124.5 L 74.5 124 L 76 124.5 L 75.5 122 L 74 122.5 L 77 121 L 77.5 119 Z M 77 139 L 78 141 Q 79 138 77 139 Z " /><path fill="rgb(251,250,252)" stroke="rgb(251,250,252)" stroke-width="1" opacity="1" d="M 53 123 L 55 123.5 L 55 125.5 L 54.5 128 Q 52 126.8 53 123 Z " /><path fill="rgb(251,250,252)" stroke="rgb(251,250,252)" stroke-width="1" opacity="1" d="M 71.5 126 L 72 129 L 74 129.5 L 72 130.5 Q 74.8 132.3 73 138.5 L 71 137.5 L 72 135.5 L 68 133.5 L 71.5 126 Z " /><path fill="rgb(251,250,252)" stroke="rgb(251,250,252)" stroke-width="1" opacity="1" d="M 49 132 L 53 134.5 L 51 135.5 L 50.5 133 L 49 133.5 L 49 132 Z " /><path fill="rgb(251,250,252)" stroke="rgb(251,250,252)" stroke-width="1" opacity="1" d="M 86 134 L 89.5 135 Q 90.8 132.8 92 135.5 L 91.5 137 L 94 137.5 L 91.5 138 L 86 135.5 L 86 134 Z " /><path fill="rgb(251,250,252)" stroke="rgb(251,250,252)" stroke-width="1" opacity="1" d="M 97.5 135 L 99.5 136 L 101 135.5 L 100 137.5 L 100.5 139 L 96 136.5 L 97.5 135 Z " /><path fill="rgb(251,250,252)" stroke="rgb(251,250,252)" stroke-width="1" opacity="1" d="M 114.5 135 L 117 135.5 Q 115.7 139.7 120.5 138 L 122.5 137 L 122.5 138 L 120 139.5 L 119.5 141 L 117 140 L 114.5 135 Z " /><path fill="rgb(251,250,252)" stroke="rgb(251,250,252)" stroke-width="1" opacity="1" d="M 107.5 136 L 111 136.5 L 107.5 137 L 107.5 136 Z " /><path fill="rgb(251,250,252)" stroke="rgb(251,250,252)" stroke-width="1" opacity="1" d="M 123 139 Q 126.7 137.5 126 140.5 L 122 141.5 L 123 139 Z " /><path fill="rgb(251,250,252)" stroke="rgb(251,250,252)" stroke-width="1" opacity="1" d="M 49.5 140 L 52 140.5 L 51.5 146 L 49.5 146 Q 47.3 146.8 48 144.5 L 46 141.5 L 47.5 142 Q 50 142.7 49.5 140 Z " /><path fill="rgb(251,250,252)" stroke="rgb(251,250,252)" stroke-width="1" opacity="1" d="M 120.5 142 L 121.5 144 L 120.5 142 Z " /><path fill="rgb(251,250,252)" stroke="rgb(251,250,252)" stroke-width="1" opacity="1" d="M 98.5 144 L 106.5 145 L 108.5 144 L 111 147.5 L 105.5 149 L 105.5 148 L 108 146.5 L 106.5 146 L 99.5 150 L 94 148.5 L 97 147 L 98.5 144 Z " /><path fill="rgb(251,250,252)" stroke="rgb(251,250,252)" stroke-width="1" opacity="1" d="M 118.5 144 L 119 147 L 113 147.5 L 113.5 149 Q 110.5 149.7 112 146 L 118.5 144 Z " /><path fill="rgb(251,250,252)" stroke="rgb(251,250,252)" stroke-width="1" opacity="1" d="M 61.5 160 L 62.5 162 L 61.5 160 Z " /><path fill="rgb(251,250,252)" stroke="rgb(251,250,252)" stroke-width="1" opacity="1" d="M 67.5 163 L 74 163.5 L 72 164 Q 70.9 166.7 73.5 166 Q 75 163.5 80.5 165 L 82.5 167 Q 84 163.5 85.5 166 L 88.5 167 L 92.5 165 L 93 167 L 97.5 165 Q 99 168.5 100.5 166 L 102 166.5 L 99.5 168 L 98 167.5 L 97.5 169 L 85.5 169 L 81.5 169 Q 73 171 71 166.5 L 70.5 164 L 68.5 165 L 67.5 163 Z M 79 167 L 79 168 L 81 168 L 79 167 Z " /><path fill="rgb(251,250,252)" stroke="rgb(251,250,252)" stroke-width="1" opacity="1" d="M 106.5 165 L 110 166.5 L 102.5 169 L 102.5 168 L 105 167.5 L 104.5 166 L 107.5 167 L 107.5 166 L 106.5 165 Z " /><path fill="rgb(253,252,253)" stroke="rgb(253,252,253)" stroke-width="1" opacity="1" d="M 77.5 28 L 81 28.5 L 77.5 29 L 77.5 28 Z " /><path fill="rgb(253,252,253)" stroke="rgb(253,252,253)" stroke-width="1" opacity="1" d="M 88.5 28 L 96 29 Q 97.3 32.3 92.5 31 L 92.5 32 L 100 33 L 100 42 L 105 42 L 105 45.5 L 106 50 Q 110.5 51.8 109 46.5 L 108 43.5 L 110.5 40 L 113 40.5 L 110 41.5 L 112 42 L 112 44 Q 108.3 42.5 109 45.5 Q 112.5 47.2 111 53 L 114 52.5 L 112 51.5 L 114.5 51 Q 117.8 52.8 114 54.5 L 117.5 58 L 123 56.5 Q 118.3 56.7 117 53.5 L 122.5 52 L 122.5 53 L 119 53.5 L 125.5 54 L 127 53.5 Q 124.8 54.8 127.5 56 L 130 56 L 130 61 L 123.5 61 L 123 63 L 120.5 63 L 118 64 L 118 69 L 116.5 69 L 115 69.5 L 114.5 68 L 111.5 71 L 110.5 70 L 107 71.5 L 109 75.5 L 107 75.5 L 108 78.5 Q 105.8 79.8 108.5 81 L 109 77 L 112 78.5 L 111 80.5 L 115 83 L 115.5 85 L 118 83.5 L 118.5 85 L 119 82 L 117 81.5 L 118.5 81 L 121.5 82 L 123 81.5 L 123.5 83 Q 125.2 79.9 127 81.5 L 126 77.5 L 128 76.5 L 127.5 78 L 131 77.5 L 131 62 L 137.5 62 L 140.5 61 L 142 62.5 L 142.5 64 L 143 62 Q 147.1 60.7 146 64 L 143 64.5 L 151.5 66 L 150.5 64 Q 147.5 64.7 149 61 L 152 62.5 L 152.5 65 L 154.5 64 L 155.5 67 L 156.5 65 L 157 66.5 L 156 67.5 L 156 115 L 151 115 L 151 118.5 Q 148.7 119.8 150 124.5 L 148 126.5 L 149 127.5 L 146 130.5 L 145.5 132 L 145 129 L 148 127.5 L 145 125.5 L 146.5 123 L 145 122.5 L 146 120.5 L 145 118.5 L 148 117 Q 149.3 114 145.5 115 L 144 115.5 L 145.5 113 L 147 113.5 L 149 110.5 Q 143.5 111 142 107.5 L 144.5 109 L 146 108.5 L 146 100 L 136.5 101 L 134.5 100 L 129.5 104 L 130.5 102 L 133 100.5 L 129.5 99 Q 128.3 101.3 123.5 100 L 120 97.5 Q 121.5 94.5 123 97.5 Q 122.1 100.5 126.5 99 L 131 98 L 131 94 Q 125.8 95.7 127 92 L 119.5 92 L 115.5 91 L 114.5 92 L 106 92 L 107.5 88 Q 110.1 88.8 109 85.5 L 106 84 L 106 82 L 100 82 L 100 76.5 Q 97.7 75.3 99 70.5 L 102 60.5 L 102 54 L 100 54 Q 101.7 48.8 98 50 Q 99 53 96 52 L 96 56.5 L 95 57.5 L 95 65 Q 91 66.4 93 59.5 Q 95.3 58.3 92.5 57 L 92 59 Q 86.8 56.9 88 61.5 L 86 68.5 L 83.5 71 Q 80.2 69.9 81 72.5 L 80 72.5 L 81 68 L 78.5 67 L 78 69 L 75 68.5 L 77 68 L 79 64.5 L 76 63.5 L 78 62.5 L 73.5 62 L 73.5 63 L 75 63.5 L 73 64.5 L 76 65.5 L 71.5 68 L 71 65 L 69 64.5 L 69 55 L 73 54.5 L 69.5 53 L 68 53.5 Q 67.1 50.1 72.5 52 L 75.5 54 Q 76.8 51.8 78 54.5 L 77 58 Q 82.6 60.2 81 54.5 Q 82.5 51.5 84 54.5 Q 82.4 60.2 88 58 L 88 54 Q 83.9 55.7 85 51.5 L 84 49.5 L 84.5 48 L 82.5 49 L 83 47.5 Q 84.1 44.2 81.5 45 L 81.5 44 L 83.5 45 L 84.5 43 L 85 44.5 L 84 46.5 L 85.5 46 L 92 46 L 92 38 L 85.5 38 L 85 40 L 82.5 40 L 82.5 39 L 84 38.5 L 76 35.5 L 85 34.5 L 84 31 L 91.5 31 L 92 29 Q 87.6 30 88.5 28 Z M 87 51 Q 86 54 89 53 Q 90 50 87 51 Z M 112 56 L 113 58 Q 114 55 112 56 Z M 117 61 Q 116 64 120 63 Q 121 60 117 61 Z M 81 65 L 82 68 Q 81 70 84 69 L 83 68 Q 84 64 81 65 Z M 111 65 L 111 67 L 113 66 L 111 65 Z M 151 67 L 151 68 L 154 68 L 151 67 Z M 105 69 L 104 73 L 105 73 L 105 69 Z " /><path fill="rgb(253,252,253)" stroke="rgb(253,252,253)" stroke-width="1" opacity="1" d="M 135.5 32 L 138 32.5 L 136 33.5 L 138 34.5 L 136.5 35 L 134 33.5 L 135.5 32 Z " /><path fill="rgb(253,252,253)" stroke="rgb(253,252,253)" stroke-width="1" opacity="1" d="M 128.5 34 Q 130.8 33.3 130 35.5 L 128.5 34 Z " /><path fill="rgb(253,252,253)" stroke="rgb(253,252,253)" stroke-width="1" opacity="1" d="M 132.5 34 L 131.5 36 L 132.5 34 Z " /><path fill="rgb(253,252,253)" stroke="rgb(253,252,253)" stroke-width="1" opacity="1" d="M 73 35 L 75 35.5 L 74.5 38 L 73 35 Z " /><path fill="rgb(253,252,253)" stroke="rgb(253,252,253)" stroke-width="1" opacity="1" d="M 120.5 35 Q 122.8 34.3 122 36.5 L 120.5 35 Z " /><path fill="rgb(253,252,253)" stroke="rgb(253,252,253)" stroke-width="1" opacity="1" d="M 124.5 35 L 126 35.5 L 123.5 37 L 124.5 35 Z " /><path fill="rgb(253,252,253)" stroke="rgb(253,252,253)" stroke-width="1" opacity="1" d="M 140.5 35 L 140.5 38 Q 137.5 36.5 140.5 35 Z " /><path fill="rgb(253,252,253)" stroke="rgb(253,252,253)" stroke-width="1" opacity="1" d="M 142.5 35 L 145 36 L 144.5 38 L 142.5 35 Z " /><path fill="rgb(253,252,253)" stroke="rgb(253,252,253)" stroke-width="1" opacity="1" d="M 61.5 37 L 61 38.5 L 60.5 40 L 60 38.5 L 61.5 37 Z " /><path fill="rgb(253,252,253)" stroke="rgb(253,252,253)" stroke-width="1" opacity="1" d="M 115.5 38 L 114.5 40 L 115.5 38 Z " /><path fill="rgb(253,252,253)" stroke="rgb(253,252,253)" stroke-width="1" opacity="1" d="M 41 39 L 45 40.5 L 42 42.5 Q 42.7 45.5 39 44 Q 38 41 41 42 L 41 39 Z " /><path fill="rgb(253,252,253)" stroke="rgb(253,252,253)" stroke-width="1" opacity="1" d="M 54.5 41 L 53.5 43 L 54.5 41 Z " /><path fill="rgb(253,252,253)" stroke="rgb(253,252,253)" stroke-width="1" opacity="1" d="M 81.5 41 L 82.5 43 L 81.5 41 Z " /><path fill="rgb(253,252,253)" stroke="rgb(253,252,253)" stroke-width="1" opacity="1" d="M 150.5 41 L 151.5 43 L 150.5 41 Z " /><path fill="rgb(253,252,253)" stroke="rgb(253,252,253)" stroke-width="1" opacity="1" d="M 153.5 43 L 154.5 45 L 153.5 43 Z " /><path fill="rgb(253,252,253)" stroke="rgb(253,252,253)" stroke-width="1" opacity="1" d="M 48.5 45 L 51 46.5 L 49.5 46 L 48.5 45 Z " /><path fill="rgb(253,252,253)" stroke="rgb(253,252,253)" stroke-width="1" opacity="1" d="M 155.5 46 L 156.5 48 L 155.5 46 Z " /><path fill="rgb(253,252,253)" stroke="rgb(253,252,253)" stroke-width="1" opacity="1" d="M 133.5 47 L 134.5 49 L 133.5 47 Z " /><path fill="rgb(253,252,253)" stroke="rgb(253,252,253)" stroke-width="1" opacity="1" d="M 48.5 48 L 49 50 L 47 49.5 L 48.5 48 Z " /><path fill="rgb(253,252,253)" stroke="rgb(253,252,253)" stroke-width="1" opacity="1" d="M 41 52 L 45 53.5 L 42 55 L 41.5 59 L 38 58 Q 36.5 61.7 39.5 61 L 39.5 59 L 41 62 Q 43.7 60.9 43 63.5 L 42 65.5 L 44 65.5 L 43.5 68 L 41.5 68 L 35 68 L 35 57.5 Q 37 53.8 39 55.5 L 39.5 53 L 40 55 L 42 54.5 L 41 52 Z " /><path fill="rgb(253,252,253)" stroke="rgb(253,252,253)" stroke-width="1" opacity="1" d="M 132.5 52 L 133.5 54 L 131.5 54 L 130 53.5 L 132.5 52 Z " /><path fill="rgb(253,252,253)" stroke="rgb(253,252,253)" stroke-width="1" opacity="1" d="M 58 53 L 61 53.5 L 59 54 L 58.5 57 L 58 53 Z " /><path fill="rgb(253,252,253)" stroke="rgb(253,252,253)" stroke-width="1" opacity="1" d="M 64.5 55 L 65 56.5 L 62.5 62 L 63 60.5 Q 62 56 64.5 55 Z " /><path fill="rgb(253,252,253)" stroke="rgb(253,252,253)" stroke-width="1" opacity="1" d="M 155.5 55 L 157 59.5 L 155.5 63 L 155 60.5 L 155 58.5 L 155.5 55 Z " /><path fill="rgb(253,252,253)" stroke="rgb(253,252,253)" stroke-width="1" opacity="1" d="M 57.5 58 L 61 59.5 L 57.5 61 L 57.5 58 Z " /><path fill="rgb(253,252,253)" stroke="rgb(253,252,253)" stroke-width="1" opacity="1" d="M 135.5 58 L 136.5 60 L 135.5 58 Z " /><path fill="rgb(253,252,253)" stroke="rgb(253,252,253)" stroke-width="1" opacity="1" d="M 56 62 L 58 62.5 L 56 63.5 L 56 62 Z " /><path fill="rgb(253,252,253)" stroke="rgb(253,252,253)" stroke-width="1" opacity="1" d="M 125.5 62 L 126.5 64 L 125.5 62 Z " /><path fill="rgb(253,252,253)" stroke="rgb(253,252,253)" stroke-width="1" opacity="1" d="M 54.5 65 L 54 66.5 Q 52.8 70.3 56.5 69 L 58.5 69 Q 61.8 67.9 61 70.5 L 61 72.5 Q 65.7 75.5 64 84 Q 68.1 85.7 67 81.5 L 68 81.5 L 67 84.5 L 68.5 85 L 70.5 84 L 76.5 86 L 78.5 85 L 78.5 86 Q 73.3 90 65 90 L 65 92 L 61 92 L 61 94 Q 55.8 92.3 57 96 L 52.5 96 L 51 94.5 Q 51.8 85.3 50 80 Q 47 81.3 48 77.5 Q 44.5 75.8 46 70 L 50.5 71 L 54.5 65 Z M 53 70 L 51 72 L 52 73 L 54 72 Q 55 69 53 70 Z M 50 71 L 48 73 L 50 73 L 50 71 Z M 62 75 L 61 85 L 63 85 L 63 77 L 62 75 Z " /><path fill="rgb(253,252,253)" stroke="rgb(253,252,253)" stroke-width="1" opacity="1" d="M 127.5 65 L 129 73.5 L 127 74.5 L 126 72.5 L 127 69.5 L 127.5 65 Z " /><path fill="rgb(253,252,253)" stroke="rgb(253,252,253)" stroke-width="1" opacity="1" d="M 35 69 Q 39.1 67.7 38 71 Q 33.9 72.3 35 69 Z " /><path fill="rgb(253,252,253)" stroke="rgb(253,252,253)" stroke-width="1" opacity="1" d="M 81 76 L 83 76.5 L 81 77.5 L 81 76 Z " /><path fill="rgb(253,252,253)" stroke="rgb(253,252,253)" stroke-width="1" opacity="1" d="M 92 77 Q 95.8 75.5 95 78.5 Q 92.5 80 96 81.5 Q 98.2 87.8 92.5 86 Q 91.2 89.3 85.5 88 L 85.5 87 L 91 85 L 92 77 Z " /><path fill="rgb(253,252,253)" stroke="rgb(253,252,253)" stroke-width="1" opacity="1" d="M 113.5 77 L 116 81.5 L 114.5 82 Q 111.8 80.8 114 79.5 L 113.5 77 Z " /><path fill="rgb(253,252,253)" stroke="rgb(253,252,253)" stroke-width="1" opacity="1" d="M 96.5 91 L 100 91.5 L 96.5 92 L 96.5 91 Z " /><path fill="rgb(253,252,253)" stroke="rgb(253,252,253)" stroke-width="1" opacity="1" d="M 97.5 96 L 96.5 98 L 95 97.5 L 97.5 96 Z " /><path fill="rgb(253,252,253)" stroke="rgb(253,252,253)" stroke-width="1" opacity="1" d="M 100 96 L 102.5 97 Q 103.8 94.8 105 97.5 L 99.5 99 L 100 97.5 L 100 96 Z " /><path fill="rgb(253,252,253)" stroke="rgb(253,252,253)" stroke-width="1" opacity="1" d="M 109.5 96 L 111 98.5 L 110 98.5 L 109.5 97 L 108 97.5 L 109.5 96 Z " /><path fill="rgb(253,252,253)" stroke="rgb(253,252,253)" stroke-width="1" opacity="1" d="M 116.5 96 L 119 96.5 L 116.5 97 L 116.5 96 Z " /><path fill="rgb(253,252,253)" stroke="rgb(253,252,253)" stroke-width="1" opacity="1" d="M 82.5 97 Q 89.8 96.2 93 99.5 L 91.5 100 Q 88.8 97.2 82.5 98 L 82.5 97 Z " /><path fill="rgb(253,252,253)" stroke="rgb(253,252,253)" stroke-width="1" opacity="1" d="M 113.5 97 L 112.5 99 L 113.5 97 Z " /><path fill="rgb(253,252,253)" stroke="rgb(253,252,253)" stroke-width="1" opacity="1" d="M 77.5 98 L 81 98.5 L 77.5 99 L 77.5 98 Z " /><path fill="rgb(253,252,253)" stroke="rgb(253,252,253)" stroke-width="1" opacity="1" d="M 73.5 99 L 76 99.5 L 73.5 100 L 73.5 99 Z " /><path fill="rgb(253,252,253)" stroke="rgb(253,252,253)" stroke-width="1" opacity="1" d="M 81.5 101 L 84 101.5 Q 81.9 104.8 81.5 101 Z " /><path fill="rgb(253,252,253)" stroke="rgb(253,252,253)" stroke-width="1" opacity="1" d="M 58 102 L 64.5 102 L 65 104 L 61.5 105 L 58 104 L 58 102 Z " /><path fill="rgb(253,252,253)" stroke="rgb(253,252,253)" stroke-width="1" opacity="1" d="M 53.5 105 L 55 107.5 L 53 108 L 54 115.5 L 53 115.5 L 52.5 112 L 50.5 116 L 50 111.5 L 51 107.5 L 53.5 105 Z " /><path fill="rgb(253,252,253)" stroke="rgb(253,252,253)" stroke-width="1" opacity="1" d="M 132.5 105 Q 134.8 104.3 134 106.5 L 132.5 105 Z " /><path fill="rgb(253,252,253)" stroke="rgb(253,252,253)" stroke-width="1" opacity="1" d="M 57.5 106 L 60 106.5 L 62 110.5 L 59.5 111 Q 61.2 109 57.5 107 L 55.5 111 L 55 109.5 L 57.5 106 Z " /><path fill="rgb(253,252,253)" stroke="rgb(253,252,253)" stroke-width="1" opacity="1" d="M 136.5 106 L 139 107.5 L 136 108 L 136.5 106 Z " /><path fill="rgb(253,252,253)" stroke="rgb(253,252,253)" stroke-width="1" opacity="1" d="M 56.5 112 L 59 113.5 L 58.5 115 L 58 113 L 55.5 114 L 56.5 112 Z " /><path fill="rgb(253,252,253)" stroke="rgb(253,252,253)" stroke-width="1" opacity="1" d="M 96.5 115 L 103 116.5 L 97.5 117 L 96.5 115 Z " /><path fill="rgb(253,252,253)" stroke="rgb(253,252,253)" stroke-width="1" opacity="1" d="M 118.5 115 L 122 117.5 Q 123.5 121.9 120.5 121 Q 116.2 119.2 119 117.5 L 118.5 115 Z M 121 117 L 120 120 L 121 120 L 121 117 Z " /><path fill="rgb(253,252,253)" stroke="rgb(253,252,253)" stroke-width="1" opacity="1" d="M 123.5 115 L 124.5 117 L 123.5 115 Z " /><path fill="rgb(253,252,253)" stroke="rgb(253,252,253)" stroke-width="1" opacity="1" d="M 91.5 117 L 92.5 119 L 90 118.5 L 91.5 117 Z " /><path fill="rgb(253,252,253)" stroke="rgb(253,252,253)" stroke-width="1" opacity="1" d="M 114.5 117 L 117 118.5 Q 116.5 121.5 112.5 121 L 111.5 119 L 114.5 117 Z " /><path fill="rgb(253,252,253)" stroke="rgb(253,252,253)" stroke-width="1" opacity="1" d="M 85 119 Q 89.1 117.7 88 121 Q 83.9 122.3 85 119 Z " /><path fill="rgb(253,252,253)" stroke="rgb(253,252,253)" stroke-width="1" opacity="1" d="M 75.5 122 L 75.5 125 Q 72.5 123.5 75.5 122 Z " /><path fill="rgb(253,252,253)" stroke="rgb(253,252,253)" stroke-width="1" opacity="1" d="M 106 122 Q 109 121 108 124 L 110.5 124 L 110.5 123 L 109 122.5 L 110.5 122 L 114.5 124 Q 116 121.5 121.5 123 L 123.5 123 L 126 123.5 L 123 124 L 122.5 126 L 120 124.5 L 118.5 128 L 117.5 126 L 115.5 127 L 113.5 126 L 109.5 126 L 106.5 125 L 105 125.5 L 106 122 Z M 112 124 L 113 126 Q 114 123 112 124 Z M 115 124 L 115 126 L 117 125 L 115 124 Z " /><path fill="rgb(253,252,253)" stroke="rgb(253,252,253)" stroke-width="1" opacity="1" d="M 46 123 L 51.5 123 L 52 124.5 L 51 126.5 L 54 128.5 L 51.5 130 L 50.5 127 Q 43.8 129 46 123 Z " /><path fill="rgb(253,252,253)" stroke="rgb(253,252,253)" stroke-width="1" opacity="1" d="M 85.5 123 Q 89.9 121.5 89 124.5 L 90 124.5 L 90.5 123 L 91 124.5 L 89.5 126 L 85.5 123 Z " /><path fill="rgb(253,252,253)" stroke="rgb(253,252,253)" stroke-width="1" opacity="1" d="M 94.5 123 L 98.5 124 L 100 123.5 Q 100.8 125.8 98.5 125 L 95.5 126 L 92 124.5 L 94.5 123 Z " /><path fill="rgb(253,252,253)" stroke="rgb(253,252,253)" stroke-width="1" opacity="1" d="M 101 124 L 104 125.5 L 101 126 L 101 124 Z " /><path fill="rgb(253,252,253)" stroke="rgb(253,252,253)" stroke-width="1" opacity="1" d="M 127.5 124 L 128.5 126 L 127.5 124 Z " /><path fill="rgb(253,252,253)" stroke="rgb(253,252,253)" stroke-width="1" opacity="1" d="M 124.5 125 L 126.5 128 L 124 127 L 124.5 125 Z " /><path fill="rgb(253,252,253)" stroke="rgb(253,252,253)" stroke-width="1" opacity="1" d="M 121.5 127 Q 123.8 126.3 123 128.5 L 121.5 127 Z " /><path fill="rgb(253,252,253)" stroke="rgb(253,252,253)" stroke-width="1" opacity="1" d="M 79.5 130 L 80.5 132 L 79.5 130 Z " /><path fill="rgb(253,252,253)" stroke="rgb(253,252,253)" stroke-width="1" opacity="1" d="M 48.5 131 Q 52.3 130.3 53 132.5 L 52.5 134 L 51 133.5 Q 52.5 137.9 49.5 137 L 49.5 138 L 51 138.5 L 50.5 141 L 49 140.5 Q 49.8 142.8 47.5 142 L 46 142.5 L 46 140.5 L 46.5 139 L 49 140 L 48 137.5 L 51 132.5 Q 47.7 132.6 48.5 131 Z " /><path fill="rgb(253,252,253)" stroke="rgb(253,252,253)" stroke-width="1" opacity="1" d="M 69.5 134 Q 71.8 133.3 71 135.5 L 69.5 134 Z " /><path fill="rgb(253,252,253)" stroke="rgb(253,252,253)" stroke-width="1" opacity="1" d="M 123.5 134 L 126 135.5 L 120.5 138 L 120 136 L 123.5 134 Z " /><path fill="rgb(253,252,253)" stroke="rgb(253,252,253)" stroke-width="1" opacity="1" d="M 91.5 136 L 98 137 L 98.5 139 L 101 138.5 L 101.5 136 Q 105.2 138.2 100 140.5 Q 100.9 143.5 96.5 142 L 96.5 143 L 107 144.5 L 100.5 145 L 98.5 144 L 97 147 L 92.5 149 L 90 148 Q 89.3 144.9 92 145.5 L 92 140 L 85.5 139 L 84 139.5 Q 83.2 136.9 86.5 138 L 88.5 137 Q 90 139.5 91.5 136 Z M 92 137 L 92 138 L 94 138 L 92 137 Z " /><path fill="rgb(253,252,253)" stroke="rgb(253,252,253)" stroke-width="1" opacity="1" d="M 104.5 136 L 105.5 138 L 104.5 136 Z " /><path fill="rgb(253,252,253)" stroke="rgb(253,252,253)" stroke-width="1" opacity="1" d="M 111.5 137 L 114 138.5 L 112.5 138 L 110.5 139 L 111.5 137 Z " /><path fill="rgb(253,252,253)" stroke="rgb(253,252,253)" stroke-width="1" opacity="1" d="M 115.5 137 L 117 140 L 120 141.5 L 118.5 141 L 116 139.5 L 115.5 137 Z " /><path fill="rgb(253,252,253)" stroke="rgb(253,252,253)" stroke-width="1" opacity="1" d="M 122.5 140 L 126 141.5 L 124 141.5 L 123.5 144 L 121.5 143 L 120 143.5 L 123 141.5 L 122.5 140 Z " /><path fill="rgb(253,252,253)" stroke="rgb(253,252,253)" stroke-width="1" opacity="1" d="M 108.5 142 L 112 142.5 L 108.5 143 L 108.5 142 Z " /><path fill="rgb(253,252,253)" stroke="rgb(253,252,253)" stroke-width="1" opacity="1" d="M 84.5 143 L 87 144.5 L 82.5 146 L 82.5 145 Q 85 145.7 84.5 143 Z " /><path fill="rgb(253,252,253)" stroke="rgb(253,252,253)" stroke-width="1" opacity="1" d="M 115.5 144 L 118 144.5 L 115.5 145 L 115.5 144 Z " /><path fill="rgb(253,252,253)" stroke="rgb(253,252,253)" stroke-width="1" opacity="1" d="M 50.5 145 L 51.5 147 L 49 146.5 L 50.5 145 Z " /><path fill="rgb(253,252,253)" stroke="rgb(253,252,253)" stroke-width="1" opacity="1" d="M 141.5 147 L 140.5 149 L 141.5 147 Z " /><path fill="rgb(253,252,253)" stroke="rgb(253,252,253)" stroke-width="1" opacity="1" d="M 54.5 155 Q 56.8 154.3 56 156.5 L 54.5 155 Z " /><path fill="rgb(253,252,253)" stroke="rgb(253,252,253)" stroke-width="1" opacity="1" d="M 132.5 156 L 134 156.5 L 131.5 158 L 132.5 156 Z " /><path fill="rgb(253,252,253)" stroke="rgb(253,252,253)" stroke-width="1" opacity="1" d="M 64.5 162 L 66.5 162 L 68 162.5 L 66.5 166 L 64.5 162 Z " /><path fill="rgb(253,252,253)" stroke="rgb(253,252,253)" stroke-width="1" opacity="1" d="M 139.5 162 L 147 165.5 L 146.5 169 L 132.5 169 L 137.5 163 L 139.5 162 Z " /><path fill="rgb(253,252,253)" stroke="rgb(253,252,253)" stroke-width="1" opacity="1" d="M 52.5 165 L 53 169 Q 50 170.3 51 166.5 L 52.5 165 Z " /><path fill="rgb(253,252,253)" stroke="rgb(253,252,253)" stroke-width="1" opacity="1" d="M 70.5 165 L 72 167.5 L 70 166.5 L 70.5 165 Z " /><path fill="rgb(253,252,253)" stroke="rgb(253,252,253)" stroke-width="1" opacity="1" d="M 110.5 166 L 109.5 168 L 108 167.5 L 110.5 166 Z " /><path fill="rgb(253,252,253)" stroke="rgb(253,252,253)" stroke-width="1" opacity="1" d="M 54 167 L 58 168.5 L 54 169 L 54 167 Z " /><path fill="rgb(253,252,253)" stroke="rgb(253,252,253)" stroke-width="1" opacity="1" d="M 77.5 169 L 81 169.5 L 77.5 170 L 77.5 169 Z " /><path fill="rgb(253,252,253)" stroke="rgb(253,252,253)" stroke-width="1" opacity="1" d="M 92.5 169 L 99 169.5 L 92.5 170 L 92.5 169 Z " /><path fill="rgb(254,253,254)" stroke="rgb(254,253,254)" stroke-width="1" opacity="1" d="M 77.5 27 L 91.5 27 Q 97.1 30.6 107 29 Q 108.1 32.3 104 31 L 104 36 L 100 36 Q 101.8 31.5 96.5 33 L 92 31.5 L 96 31 Q 97.3 27.7 92.5 29 Q 89.5 31.8 84 31 L 85 34.5 L 83.5 34 L 79.5 35 L 79.5 34 L 81 34 L 81 30 L 77 29.5 L 81 28.5 Q 76.6 28.9 77.5 27 Z M 89 28 L 89 29 L 92 29 L 89 28 Z M 97 31 L 97 32 L 100 32 L 97 31 Z " /><path fill="rgb(254,253,254)" stroke="rgb(254,253,254)" stroke-width="1" opacity="1" d="M 46 31 Q 52 29 50 35 Q 44 37 46 31 Z " /><path fill="rgb(254,253,254)" stroke="rgb(254,253,254)" stroke-width="1" opacity="1" d="M 131.5 32 L 135 32.5 L 134 34.5 L 134.5 36 L 132 35.5 L 132.5 34 Q 130.3 33.3 131 35.5 L 130 35.5 L 131.5 32 Z " /><path fill="rgb(254,253,254)" stroke="rgb(254,253,254)" stroke-width="1" opacity="1" d="M 69.5 34 Q 73.9 32.5 73 35.5 L 71.5 35 L 68.5 36 L 69.5 34 Z " /><path fill="rgb(254,253,254)" stroke="rgb(254,253,254)" stroke-width="1" opacity="1" d="M 120.5 34 L 121 36.5 Q 121.9 39.5 117.5 38 L 116 38.5 L 120.5 34 Z " /><path fill="rgb(254,253,254)" stroke="rgb(254,253,254)" stroke-width="1" opacity="1" d="M 122 34 Q 125 33 124 36 Q 121 37 122 34 Z " /><path fill="rgb(254,253,254)" stroke="rgb(254,253,254)" stroke-width="1" opacity="1" d="M 126 34 L 129 35.5 L 126 35.5 L 126 34 Z " /><path fill="rgb(254,253,254)" stroke="rgb(254,253,254)" stroke-width="1" opacity="1" d="M 143.5 35 L 145.5 35 L 153 42.5 L 149 41.5 L 149.5 40 Q 145.8 41.3 147 37.5 L 145 37.5 Q 145.8 35.3 143.5 36 L 143.5 35 Z " /><path fill="rgb(254,253,254)" stroke="rgb(254,253,254)" stroke-width="1" opacity="1" d="M 136.5 36 L 139 36.5 L 136.5 37 L 136.5 36 Z " /><path fill="rgb(254,253,254)" stroke="rgb(254,253,254)" stroke-width="1" opacity="1" d="M 40 38 L 43 38.5 L 41 39 L 40.5 42 L 40 38 Z " /><path fill="rgb(254,253,254)" stroke="rgb(254,253,254)" stroke-width="1" opacity="1" d="M 85 38 L 92 38 L 92 46 L 85.5 46 L 84.5 47 L 84 45.5 L 85 43 L 81 40.5 L 82.5 41 L 85 39.5 L 85 38 Z " /><path fill="rgb(254,253,254)" stroke="rgb(254,253,254)" stroke-width="1" opacity="1" d="M 44.5 39 L 45.5 41 L 44.5 39 Z " /><path fill="rgb(254,253,254)" stroke="rgb(254,253,254)" stroke-width="1" opacity="1" d="M 110.5 39 L 109.5 41 L 110.5 39 Z " /><path fill="rgb(254,253,254)" stroke="rgb(254,253,254)" stroke-width="1" opacity="1" d="M 55.5 40 L 56.5 42 L 54.5 43 L 55 41.5 L 55.5 40 Z " /><path fill="rgb(254,253,254)" stroke="rgb(254,253,254)" stroke-width="1" opacity="1" d="M 43.5 41 L 42.5 43 L 43.5 41 Z " /><path fill="rgb(254,253,254)" stroke="rgb(254,253,254)" stroke-width="1" opacity="1" d="M 38.5 42 L 39 44 L 42 44.5 L 39.5 45 L 38.5 42 Z " /><path fill="rgb(254,253,254)" stroke="rgb(254,253,254)" stroke-width="1" opacity="1" d="M 105.5 42 L 107.5 49 L 108.5 46 L 109 50 Q 104.5 51.8 106 46.5 L 105.5 42 Z " /><path fill="rgb(254,253,254)" stroke="rgb(254,253,254)" stroke-width="1" opacity="1" d="M 43.5 46 L 44 50.5 L 43.5 53 L 40.5 52 L 39 52.5 Q 43.1 51.1 43.5 46 Z " /><path fill="rgb(254,253,254)" stroke="rgb(254,253,254)" stroke-width="1" opacity="1" d="M 125.5 46 L 124.5 48 L 125.5 46 Z " /><path fill="rgb(254,253,254)" stroke="rgb(254,253,254)" stroke-width="1" opacity="1" d="M 98 50 Q 101 49 100 52 L 96.5 54 L 96 52 Q 99 53 98 50 Z " /><path fill="rgb(254,253,254)" stroke="rgb(254,253,254)" stroke-width="1" opacity="1" d="M 111.5 50 L 112 52 L 114 52.5 L 111 53 L 111.5 50 Z " /><path fill="rgb(254,253,254)" stroke="rgb(254,253,254)" stroke-width="1" opacity="1" d="M 88.5 51 L 89 53 L 87 52.5 L 88.5 51 Z " /><path fill="rgb(254,253,254)" stroke="rgb(254,253,254)" stroke-width="1" opacity="1" d="M 78.5 52 L 79 54.5 Q 78.3 57.1 81 56 L 81 58 L 77 58 L 77 56.5 L 78 54.5 Q 75.8 53.2 78.5 52 Z " /><path fill="rgb(254,253,254)" stroke="rgb(254,253,254)" stroke-width="1" opacity="1" d="M 123.5 52 L 126.5 54 L 129.5 53 L 129.5 54 L 127 54.5 L 130.5 56 L 132.5 53 L 135 54 L 136 57.5 Q 133.7 58.8 136.5 60 Q 139.1 59.3 138 62 L 131 62 L 131 77.5 L 127.5 78 L 126.5 76 L 128 76.5 L 129 72.5 L 128 69 Q 131.7 70.2 130 65 Q 126.3 66.5 127 63.5 L 124.5 62 L 123 62.5 L 123.5 61 L 130 61 L 130 56 L 127.5 56 L 123.5 53 L 119.5 54 L 119.5 53 L 123.5 52 Z M 130 74 L 129 77 L 130 77 L 130 74 Z " /><path fill="rgb(254,253,254)" stroke="rgb(254,253,254)" stroke-width="1" opacity="1" d="M 69.5 53 L 73 54.5 L 69 55 L 69 64.5 L 66.5 67 Q 63.9 66.3 65 69 L 62.5 69 L 62.5 71 Q 59.9 71.7 61 69 L 58.5 69 L 56 68.5 L 55.5 66 L 54.5 69 L 54 66.5 L 58 62.5 Q 55.8 61.3 58.5 60 Q 60.8 59.3 60 61.5 L 61 61.5 L 61.5 60 L 62.5 62 L 64 60.5 L 65 54 L 69.5 53 Z " /><path fill="rgb(254,253,254)" stroke="rgb(254,253,254)" stroke-width="1" opacity="1" d="M 83.5 53 L 88 54 Q 90 60 84 58 L 83.5 53 Z " /><path fill="rgb(254,253,254)" stroke="rgb(254,253,254)" stroke-width="1" opacity="1" d="M 116.5 53 Q 117.9 56.6 123 56.5 L 117.5 58 L 114.5 54 L 116.5 55 L 116.5 53 Z " /><path fill="rgb(254,253,254)" stroke="rgb(254,253,254)" stroke-width="1" opacity="1" d="M 37.5 54 L 38.5 56 Q 36.8 53.2 35 57.5 L 35 68 L 41.5 68 L 43 67.5 L 42 71 Q 45 70 44 73 L 38 73 Q 39.9 67.4 35 69 L 34.5 71 L 34 69.5 L 34 67.5 L 34 57.5 L 37.5 54 Z " /><path fill="rgb(254,253,254)" stroke="rgb(254,253,254)" stroke-width="1" opacity="1" d="M 41.5 54 L 42.5 56 L 41.5 54 Z " /><path fill="rgb(254,253,254)" stroke="rgb(254,253,254)" stroke-width="1" opacity="1" d="M 101.5 54 L 102 60.5 L 101 60.5 L 101.5 54 Z " /><path fill="rgb(254,253,254)" stroke="rgb(254,253,254)" stroke-width="1" opacity="1" d="M 157.5 55 L 158 57.5 L 156 56.5 L 157.5 55 Z " /><path fill="rgb(254,253,254)" stroke="rgb(254,253,254)" stroke-width="1" opacity="1" d="M 111.5 56 Q 113.8 55.3 113 57.5 L 111.5 56 Z " /><path fill="rgb(254,253,254)" stroke="rgb(254,253,254)" stroke-width="1" opacity="1" d="M 92.5 57 L 93.5 59 L 88.5 61 L 88 59 Q 92.8 60.7 92.5 57 Z " /><path fill="rgb(254,253,254)" stroke="rgb(254,253,254)" stroke-width="1" opacity="1" d="M 38.5 58 L 40 60.5 L 38 61 L 38.5 58 Z " /><path fill="rgb(254,253,254)" stroke="rgb(254,253,254)" stroke-width="1" opacity="1" d="M 42 58 L 44 58.5 L 42 59.5 L 42 58 Z " /><path fill="rgb(254,253,254)" stroke="rgb(254,253,254)" stroke-width="1" opacity="1" d="M 117 61 Q 120.8 59.5 120 62.5 L 117 62.5 L 117 61 Z " /><path fill="rgb(254,253,254)" stroke="rgb(254,253,254)" stroke-width="1" opacity="1" d="M 87.5 62 L 88 64.5 L 85 70.5 Q 87.3 71.8 84.5 73 L 84 70.5 L 86 68.5 L 87.5 62 Z " /><path fill="rgb(254,253,254)" stroke="rgb(254,253,254)" stroke-width="1" opacity="1" d="M 100.5 62 L 101 64.5 L 100 64.5 L 100.5 62 Z " /><path fill="rgb(254,253,254)" stroke="rgb(254,253,254)" stroke-width="1" opacity="1" d="M 156.5 62 L 156 63.5 L 155.5 65 L 153.5 64 L 152 64.5 Q 151.1 61.5 155.5 63 L 156.5 62 Z " /><path fill="rgb(254,253,254)" stroke="rgb(254,253,254)" stroke-width="1" opacity="1" d="M 75.5 63 Q 77.3 66.1 79 64.5 L 76.5 66 L 73 64.5 L 75.5 63 Z " /><path fill="rgb(254,253,254)" stroke="rgb(254,253,254)" stroke-width="1" opacity="1" d="M 80.5 65 Q 84.3 63.8 83 67.5 L 83.5 69 Q 81.3 69.8 82 67.5 L 80.5 65 Z " /><path fill="rgb(254,253,254)" stroke="rgb(254,253,254)" stroke-width="1" opacity="1" d="M 111 65 L 113 65.5 L 111 66.5 L 111 65 Z " /><path fill="rgb(254,253,254)" stroke="rgb(254,253,254)" stroke-width="1" opacity="1" d="M 69.5 67 L 72 68.5 L 70.5 68 L 69.5 67 Z " /><path fill="rgb(254,253,254)" stroke="rgb(254,253,254)" stroke-width="1" opacity="1" d="M 78.5 67 L 81 70.5 L 79 69.5 L 78.5 67 Z " /><path fill="rgb(254,253,254)" stroke="rgb(254,253,254)" stroke-width="1" opacity="1" d="M 150.5 67 L 154 67.5 L 150.5 68 L 150.5 67 Z " /><path fill="rgb(254,253,254)" stroke="rgb(254,253,254)" stroke-width="1" opacity="1" d="M 156.5 67 L 157 114.5 L 156 114.5 L 156.5 67 Z " /><path fill="rgb(254,253,254)" stroke="rgb(254,253,254)" stroke-width="1" opacity="1" d="M 114.5 68 L 112.5 71 L 114.5 68 Z " /><path fill="rgb(254,253,254)" stroke="rgb(254,253,254)" stroke-width="1" opacity="1" d="M 104.5 69 L 105 72.5 L 104 72.5 L 104.5 69 Z " /><path fill="rgb(254,253,254)" stroke="rgb(254,253,254)" stroke-width="1" opacity="1" d="M 52.5 70 Q 54.8 69.3 54 71.5 L 52.5 70 Z " /><path fill="rgb(254,253,254)" stroke="rgb(254,253,254)" stroke-width="1" opacity="1" d="M 125.5 70 L 126.5 72 L 125.5 70 Z " /><path fill="rgb(254,253,254)" stroke="rgb(254,253,254)" stroke-width="1" opacity="1" d="M 49.5 71 L 50 73 L 48 72.5 L 49.5 71 Z " /><path fill="rgb(254,253,254)" stroke="rgb(254,253,254)" stroke-width="1" opacity="1" d="M 61.5 75 L 63 85 L 61 84.5 L 61.5 75 Z " /><path fill="rgb(254,253,254)" stroke="rgb(254,253,254)" stroke-width="1" opacity="1" d="M 79.5 75 L 81.5 78 L 83 77.5 Q 81.7 80.3 80.5 78 Q 77.4 78.8 79.5 75 Z " /><path fill="rgb(254,253,254)" stroke="rgb(254,253,254)" stroke-width="1" opacity="1" d="M 107.5 75 Q 110 76 109 80.5 L 107 79.5 L 108 77.5 L 107.5 75 Z " /><path fill="rgb(254,253,254)" stroke="rgb(254,253,254)" stroke-width="1" opacity="1" d="M 91.5 77 L 92 80.5 L 90.5 85 L 90 81.5 L 91.5 77 Z " /><path fill="rgb(254,253,254)" stroke="rgb(254,253,254)" stroke-width="1" opacity="1" d="M 94.5 79 L 95.5 81 L 94.5 79 Z " /><path fill="rgb(254,253,254)" stroke="rgb(254,253,254)" stroke-width="1" opacity="1" d="M 67.5 80 L 70 81.5 L 69 85 L 67 84.5 L 68 81.5 L 67.5 80 Z " /><path fill="rgb(254,253,254)" stroke="rgb(254,253,254)" stroke-width="1" opacity="1" d="M 112.5 80 L 113 82 L 115 82.5 L 113.5 83 L 112.5 80 Z " /><path fill="rgb(254,253,254)" stroke="rgb(254,253,254)" stroke-width="1" opacity="1" d="M 125.5 80 L 127 80.5 L 123.5 82 L 123.5 81 L 125.5 80 Z " /><path fill="rgb(254,253,254)" stroke="rgb(254,253,254)" stroke-width="1" opacity="1" d="M 119.5 81 L 122 81.5 L 119.5 82 L 119.5 81 Z " /><path fill="rgb(254,253,254)" stroke="rgb(254,253,254)" stroke-width="1" opacity="1" d="M 80.5 82 L 80 83.5 L 79.5 85 L 79 83.5 L 80.5 82 Z " /><path fill="rgb(254,253,254)" stroke="rgb(254,253,254)" stroke-width="1" opacity="1" d="M 100.5 82 L 104 82.5 L 100.5 83 L 100.5 82 Z " /><path fill="rgb(254,253,254)" stroke="rgb(254,253,254)" stroke-width="1" opacity="1" d="M 117.5 82 L 119 84.5 L 118 84.5 L 117.5 83 L 115 84.5 L 117.5 82 Z " /><path fill="rgb(254,253,254)" stroke="rgb(254,253,254)" stroke-width="1" opacity="1" d="M 50.5 84 L 51 94.5 L 52 95.5 L 50 96 L 50.5 84 Z " /><path fill="rgb(254,253,254)" stroke="rgb(254,253,254)" stroke-width="1" opacity="1" d="M 96.5 84 L 97 87.5 L 95.5 87 L 91.5 88 L 92.5 86 Q 97 87.3 96.5 84 Z " /><path fill="rgb(254,253,254)" stroke="rgb(254,253,254)" stroke-width="1" opacity="1" d="M 106.5 84 L 109 85.5 L 108.5 88 L 107.5 85 L 106.5 84 Z " /><path fill="rgb(254,253,254)" stroke="rgb(254,253,254)" stroke-width="1" opacity="1" d="M 88.5 85 L 87.5 87 L 85 87.5 L 90 88.5 L 85.5 89 L 84 86 L 88.5 85 Z " /><path fill="rgb(254,253,254)" stroke="rgb(254,253,254)" stroke-width="1" opacity="1" d="M 35.5 88 L 36 103.5 L 35 103.5 L 35.5 88 Z " /><path fill="rgb(254,253,254)" stroke="rgb(254,253,254)" stroke-width="1" opacity="1" d="M 73.5 88 L 72.5 90 L 65.5 92 L 65 90 L 73.5 88 Z " /><path fill="rgb(254,253,254)" stroke="rgb(254,253,254)" stroke-width="1" opacity="1" d="M 105 88 L 107 88.5 L 105.5 92 L 105 88 Z " /><path fill="rgb(254,253,254)" stroke="rgb(254,253,254)" stroke-width="1" opacity="1" d="M 96.5 90 L 100 90.5 L 96.5 91 L 96.5 90 Z " /><path fill="rgb(254,253,254)" stroke="rgb(254,253,254)" stroke-width="1" opacity="1" d="M 115.5 91 L 119 91.5 L 115.5 92 L 115.5 91 Z " /><path fill="rgb(254,253,254)" stroke="rgb(254,253,254)" stroke-width="1" opacity="1" d="M 61.5 92 L 62 93.5 L 59.5 95 L 59.5 94 Q 62 94.7 61.5 92 Z " /><path fill="rgb(254,253,254)" stroke="rgb(254,253,254)" stroke-width="1" opacity="1" d="M 130.5 94 L 131 97.5 L 130 97.5 L 130.5 94 Z " /><path fill="rgb(254,253,254)" stroke="rgb(254,253,254)" stroke-width="1" opacity="1" d="M 73.5 96 Q 80.3 94.3 82 97.5 L 80.5 97 L 73.5 97 L 73.5 96 Z " /><path fill="rgb(254,253,254)" stroke="rgb(254,253,254)" stroke-width="1" opacity="1" d="M 98.5 96 Q 100.8 95.3 100 97.5 L 98.5 96 Z " /><path fill="rgb(254,253,254)" stroke="rgb(254,253,254)" stroke-width="1" opacity="1" d="M 105.5 96 Q 108.8 94.9 108 97.5 L 106.5 97 L 105.5 96 Z " /><path fill="rgb(254,253,254)" stroke="rgb(254,253,254)" stroke-width="1" opacity="1" d="M 113.5 96 L 116.5 97 L 120.5 96 L 120.5 99 L 117.5 98 L 115.5 99 Q 113.7 95.2 112 98.5 L 112.5 100 Q 109 98 113.5 96 Z " /><path fill="rgb(254,253,254)" stroke="rgb(254,253,254)" stroke-width="1" opacity="1" d="M 122.5 96 L 127 97 L 126.5 99 Q 122.5 98.5 122.5 96 Z " /><path fill="rgb(254,253,254)" stroke="rgb(254,253,254)" stroke-width="1" opacity="1" d="M 70.5 98 L 77 98.5 L 70.5 101 L 68.5 101 L 66 100.5 L 70.5 98 Z " /><path fill="rgb(254,253,254)" stroke="rgb(254,253,254)" stroke-width="1" opacity="1" d="M 135.5 100 L 136.5 102 L 135.5 100 Z " /><path fill="rgb(254,253,254)" stroke="rgb(254,253,254)" stroke-width="1" opacity="1" d="M 138 100 L 146 100 L 146 107.5 L 143.5 108 L 142 106.5 L 139.5 103 L 138 103.5 L 138 100 Z " /><path fill="rgb(254,253,254)" stroke="rgb(254,253,254)" stroke-width="1" opacity="1" d="M 58.5 101 L 61 101.5 L 58 102 Q 56.9 104.7 59.5 104 L 59.5 105 L 58 105.5 L 58.5 107 L 54 106.5 L 53.5 105 Q 48.6 109.1 50 119.5 L 51 119.5 L 52.5 112 L 53 114.5 L 53 116.5 L 52 121 L 50 121.5 L 50.5 123 Q 43.8 125 46 119 Q 49 120.3 48 116.5 L 48.5 115 Q 43.9 116.2 46 111 Q 52 113.3 50 106.5 L 55.5 103 L 57 103.5 L 58.5 101 Z " /><path fill="rgb(254,253,254)" stroke="rgb(254,253,254)" stroke-width="1" opacity="1" d="M 61.5 105 L 62.5 107 L 60 106.5 L 61.5 105 Z " /><path fill="rgb(254,253,254)" stroke="rgb(254,253,254)" stroke-width="1" opacity="1" d="M 139.5 107 L 141 107.5 L 138.5 109 L 139.5 107 Z " /><path fill="rgb(254,253,254)" stroke="rgb(254,253,254)" stroke-width="1" opacity="1" d="M 146.5 110 L 149 110.5 Q 146.9 113.8 146.5 110 Z " /><path fill="rgb(254,253,254)" stroke="rgb(254,253,254)" stroke-width="1" opacity="1" d="M 111.5 112 L 110.5 114 L 111.5 112 Z " /><path fill="rgb(254,253,254)" stroke="rgb(254,253,254)" stroke-width="1" opacity="1" d="M 146.5 115 L 147 116.5 L 145 117.5 L 146.5 115 Z " /><path fill="rgb(254,253,254)" stroke="rgb(254,253,254)" stroke-width="1" opacity="1" d="M 151 115 L 153 115.5 L 150.5 123 L 150 119.5 L 151 115 Z " /><path fill="rgb(254,253,254)" stroke="rgb(254,253,254)" stroke-width="1" opacity="1" d="M 81 116 L 85 116 L 85 117.5 L 85 119.5 L 84.5 121 L 83 118.5 L 83.5 117 Q 81.3 116.3 82 118.5 L 81 118.5 L 81 116 Z " /><path fill="rgb(254,253,254)" stroke="rgb(254,253,254)" stroke-width="1" opacity="1" d="M 88 116 L 91 117.5 L 90.5 119 L 99.5 119 Q 104.2 115.7 113.5 117 L 112.5 119 L 111 119.5 L 114.5 121 L 118.5 119 L 122 121 Q 120.7 116.9 124 118 L 122 122.5 L 124.5 121 L 126.5 120 L 126 121.5 Q 126.8 124.1 123.5 123 L 121.5 123 Q 119.3 123.8 120 121.5 L 119 121.5 Q 119.9 124.5 115.5 123 L 115.5 124 L 117 124.5 L 113.5 127 Q 113 123.5 108.5 124 L 106 125.5 L 108 122 L 106 122 Q 107.1 124.7 104.5 124 L 103.5 123 L 94.5 123 L 92 123.5 L 91.5 125 L 90.5 123 L 89.5 125 L 89 123 L 85 123.5 L 85.5 125 Q 82.5 123.5 85.5 122 L 88 122 L 88 116 Z M 112 123 L 112 124 Q 114 123 113 126 Q 116 127 115 125 L 112 123 Z " /><path fill="rgb(254,253,254)" stroke="rgb(254,253,254)" stroke-width="1" opacity="1" d="M 93.5 116 L 95 116.5 L 92.5 118 L 93.5 116 Z " /><path fill="rgb(254,253,254)" stroke="rgb(254,253,254)" stroke-width="1" opacity="1" d="M 96.5 116 L 99 117.5 L 96 118 L 96.5 116 Z " /><path fill="rgb(254,253,254)" stroke="rgb(254,253,254)" stroke-width="1" opacity="1" d="M 117.5 116 Q 120.1 115.3 119 118 L 115 117.5 L 117.5 116 Z " /><path fill="rgb(254,253,254)" stroke="rgb(254,253,254)" stroke-width="1" opacity="1" d="M 125.5 116 L 126 118.5 L 125 118.5 L 125.5 116 Z " /><path fill="rgb(254,253,254)" stroke="rgb(254,253,254)" stroke-width="1" opacity="1" d="M 53.5 121 L 54.5 123 Q 52.3 122.3 53 124.5 L 52 127 L 54 127.5 L 52.5 128 L 51 125.5 L 53.5 121 Z " /><path fill="rgb(254,253,254)" stroke="rgb(254,253,254)" stroke-width="1" opacity="1" d="M 81.5 123 Q 83.8 122.3 83 124.5 L 83.5 126 L 81.5 123 Z " /><path fill="rgb(254,253,254)" stroke="rgb(254,253,254)" stroke-width="1" opacity="1" d="M 125 124 Q 128 123 127 126 Q 124 127 125 124 Z " /><path fill="rgb(254,253,254)" stroke="rgb(254,253,254)" stroke-width="1" opacity="1" d="M 72.5 125 L 73 128 L 79 129 L 77 132.5 L 77.5 134 L 73 135 L 73 131 L 74.5 131 L 73.5 129 Q 70 129.8 72.5 125 Z " /><path fill="rgb(254,253,254)" stroke="rgb(254,253,254)" stroke-width="1" opacity="1" d="M 149.5 125 L 150 129 L 148 128.5 L 149.5 125 Z " /><path fill="rgb(254,253,254)" stroke="rgb(254,253,254)" stroke-width="1" opacity="1" d="M 123.5 126 L 126 127.5 L 123 128 L 123.5 126 Z " /><path fill="rgb(254,253,254)" stroke="rgb(254,253,254)" stroke-width="1" opacity="1" d="M 46 127 L 50 127 L 50 128.5 L 53 129.5 L 52.5 132 L 46 131 L 46 127 Z " /><path fill="rgb(254,253,254)" stroke="rgb(254,253,254)" stroke-width="1" opacity="1" d="M 48.5 132 L 48.5 134 Q 50.8 133.3 50 135.5 Q 46.5 137 49 138.5 Q 49.8 140.8 47.5 140 L 46 137.5 L 48 134.5 Q 45.7 133.3 48.5 132 Z " /><path fill="rgb(254,253,254)" stroke="rgb(254,253,254)" stroke-width="1" opacity="1" d="M 145.5 132 L 146 134.5 L 145 134.5 L 145.5 132 Z " /><path fill="rgb(254,253,254)" stroke="rgb(254,253,254)" stroke-width="1" opacity="1" d="M 83.5 135 Q 86.8 133.9 86 136.5 L 86.5 138 L 83.5 136 L 83.5 135 Z " /><path fill="rgb(254,253,254)" stroke="rgb(254,253,254)" stroke-width="1" opacity="1" d="M 92.5 135 L 95 135.5 L 92.5 136 L 92.5 135 Z " /><path fill="rgb(254,253,254)" stroke="rgb(254,253,254)" stroke-width="1" opacity="1" d="M 117.5 135 L 118 137.5 L 117 137.5 L 117.5 135 Z " /><path fill="rgb(254,253,254)" stroke="rgb(254,253,254)" stroke-width="1" opacity="1" d="M 143.5 135 L 145.5 138 L 143.5 138 L 142 137.5 L 143.5 135 Z " /><path fill="rgb(254,253,254)" stroke="rgb(254,253,254)" stroke-width="1" opacity="1" d="M 102.5 136 L 103.5 138 L 102.5 136 Z " /><path fill="rgb(254,253,254)" stroke="rgb(254,253,254)" stroke-width="1" opacity="1" d="M 111.5 136 L 110 138.5 L 111.5 140 L 113.5 139 L 113.5 140 L 108 142.5 L 111.5 143 L 116.5 140 L 119.5 142 L 120 140 L 122 139.5 L 121.5 138 Q 124.2 139.3 122 140.5 Q 122.8 142.8 120.5 142 L 118.5 142 L 115 142.5 L 115 144.5 L 115 146 Q 111.3 144.5 112 147.5 L 111 147.5 L 110.5 144 Q 109 146.5 107.5 143 L 96 142.5 L 101 140.5 L 101.5 139 L 103.5 140 L 108.5 137 Q 110 139.5 111.5 136 Z " /><path fill="rgb(254,253,254)" stroke="rgb(254,253,254)" stroke-width="1" opacity="1" d="M 123.5 136 Q 127.9 134.5 127 137.5 L 125.5 137 Q 122.5 137.5 123.5 136 Z " /><path fill="rgb(254,253,254)" stroke="rgb(254,253,254)" stroke-width="1" opacity="1" d="M 50.5 137 L 52 140 L 50 139.5 L 50.5 137 Z " /><path fill="rgb(254,253,254)" stroke="rgb(254,253,254)" stroke-width="1" opacity="1" d="M 89.5 137 L 90.5 139 L 89.5 137 Z " /><path fill="rgb(254,253,254)" stroke="rgb(254,253,254)" stroke-width="1" opacity="1" d="M 83.5 138 L 84.5 140 L 88.5 139 L 92 140.5 L 88 141.5 L 92 142 Q 94.1 147.2 89.5 146 L 80 140.5 Q 79.3 137.9 82 139 Q 80.5 142.8 83.5 142 L 83 140.5 L 83.5 138 Z " /><path fill="rgb(254,253,254)" stroke="rgb(254,253,254)" stroke-width="1" opacity="1" d="M 141 139 Q 143.7 137.9 143 140.5 L 141.5 143 Q 138.8 141.8 141 140.5 L 141 139 Z " /><path fill="rgb(254,253,254)" stroke="rgb(254,253,254)" stroke-width="1" opacity="1" d="M 79.5 142 L 78.5 144 L 79.5 142 Z " /><path fill="rgb(254,253,254)" stroke="rgb(254,253,254)" stroke-width="1" opacity="1" d="M 141 144 L 143 144.5 L 141 147.5 L 142 150 L 139 149.5 L 141 148.5 L 139 147.5 L 141 147 L 141 144 Z " /><path fill="rgb(254,253,254)" stroke="rgb(254,253,254)" stroke-width="1" opacity="1" d="M 46.5 146 L 49 146.5 L 46.5 147 L 46.5 146 Z " /><path fill="rgb(254,253,254)" stroke="rgb(254,253,254)" stroke-width="1" opacity="1" d="M 51.5 147 L 53 151.5 L 50 149.5 L 51.5 147 Z " /><path fill="rgb(254,253,254)" stroke="rgb(254,253,254)" stroke-width="1" opacity="1" d="M 133.5 155 L 135 158 L 131.5 157 L 130 160 L 127.5 161 L 127 159.5 L 131.5 156 L 133.5 157 L 133.5 155 Z " /><path fill="rgb(254,253,254)" stroke="rgb(254,253,254)" stroke-width="1" opacity="1" d="M 54.5 156 L 55.5 158 L 54.5 156 Z " /><path fill="rgb(254,253,254)" stroke="rgb(254,253,254)" stroke-width="1" opacity="1" d="M 57.5 159 L 61 161.5 L 58 161.5 L 57.5 159 Z " /><path fill="rgb(254,253,254)" stroke="rgb(254,253,254)" stroke-width="1" opacity="1" d="M 125.5 160 L 124.5 162 L 123 161.5 L 125.5 160 Z " /><path fill="rgb(254,253,254)" stroke="rgb(254,253,254)" stroke-width="1" opacity="1" d="M 137.5 161 L 139.5 161 L 146 163.5 L 142.5 164 L 139.5 162 L 131.5 169 L 131 167.5 L 137.5 161 Z " /><path fill="rgb(254,253,254)" stroke="rgb(254,253,254)" stroke-width="1" opacity="1" d="M 62.5 162 L 64.5 163 L 66 162.5 L 62.5 165 L 62.5 162 Z " /><path fill="rgb(254,253,254)" stroke="rgb(254,253,254)" stroke-width="1" opacity="1" d="M 117.5 163 L 119.5 163 L 122 163.5 L 118.5 165 L 117.5 163 Z " /><path fill="rgb(254,253,254)" stroke="rgb(254,253,254)" stroke-width="1" opacity="1" d="M 53.5 165 L 54 168.5 L 53 168.5 L 53.5 165 Z " /><path fill="rgb(254,253,254)" stroke="rgb(254,253,254)" stroke-width="1" opacity="1" d="M 67 165 Q 70.7 163.5 70 166.5 L 77 169.5 L 73.5 170 L 69 167.5 L 68.5 166 L 67 166.5 L 67 165 Z " /><path fill="rgb(254,253,254)" stroke="rgb(254,253,254)" stroke-width="1" opacity="1" d="M 114.5 165 L 115 166.5 L 114.5 169 L 111.5 168 L 110 168.5 L 111.5 166 Q 113 168.5 114.5 165 Z " /><path fill="rgb(254,253,254)" stroke="rgb(254,253,254)" stroke-width="1" opacity="1" d="M 47.5 167 L 50 168.5 L 46.5 169 L 47.5 167 Z " /><path fill="rgb(254,253,254)" stroke="rgb(254,253,254)" stroke-width="1" opacity="1" d="M 57.5 167 L 59.5 167 Q 66.4 165 65 169 L 58.5 169 L 57.5 167 Z " /><path fill="rgb(254,253,254)" stroke="rgb(254,253,254)" stroke-width="1" opacity="1" d="M 81.5 169 L 84 169.5 L 81.5 170 L 81.5 169 Z " /><path fill="rgb(254,253,254)" stroke="rgb(254,253,254)" stroke-width="1" opacity="1" d="M 88.5 169 L 92 169.5 L 88.5 170 L 88.5 169 Z " /><path fill="rgb(254,253,254)" stroke="rgb(254,253,254)" stroke-width="1" opacity="1" d="M 99.5 169 L 103 169.5 L 99.5 170 L 99.5 169 Z " /><path fill="rgb(254,255,255)" stroke="rgb(254,255,255)" stroke-width="1" opacity="1" d="M 123 30 Q 129.1 28.3 131 31.5 Q 131.9 34.9 126.5 33 L 123 34 L 123 30 Z " /><path fill="rgb(254,255,255)" stroke="rgb(254,255,255)" stroke-width="1" opacity="1" d="M 138 30 Q 144.1 28.3 146 31.5 Q 147.3 35.7 142.5 34 Q 141 36.5 139.5 33 Q 136.5 33.7 138 30 Z " /><path fill="rgb(254,255,255)" stroke="rgb(254,255,255)" stroke-width="1" opacity="1" d="M 151.5 38 Q 156.1 36.6 154 42.5 L 150 39.5 L 151.5 38 Z " /><path fill="rgb(254,255,255)" stroke="rgb(254,255,255)" stroke-width="1" opacity="1" d="M 68.5 65 L 70 65.5 L 68 66.5 L 69 70 L 66 68.5 L 68.5 65 Z " /><path fill="rgb(254,255,255)" stroke="rgb(254,255,255)" stroke-width="1" opacity="1" d="M 128 65 Q 131.7 63.8 130 69 Q 126.3 70.2 128 65 Z " /><path fill="rgb(254,255,255)" stroke="rgb(254,255,255)" stroke-width="1" opacity="1" d="M 55.5 66 L 56 68.5 L 55 68.5 L 55.5 66 Z " /><path fill="rgb(254,255,255)" stroke="rgb(254,255,255)" stroke-width="1" opacity="1" d="M 81 71 Q 84.8 69.5 84 72.5 L 85 74.5 L 84 76.5 L 85 77.5 L 82 80.5 L 81.5 83 L 81 79.5 L 83 75.5 L 82.5 73 Q 79.9 73.7 81 71 Z " /><path fill="rgb(254,255,255)" stroke="rgb(254,255,255)" stroke-width="1" opacity="1" d="M 129.5 74 L 130 76.5 L 129 76.5 L 129.5 74 Z " /><path fill="rgb(254,255,255)" stroke="rgb(254,255,255)" stroke-width="1" opacity="1" d="M 115.5 80 L 116.5 82 L 115.5 80 Z " /><path fill="rgb(254,255,255)" stroke="rgb(254,255,255)" stroke-width="1" opacity="1" d="M 65.5 100 L 64.5 102 L 65.5 100 Z " /><path fill="rgb(254,255,255)" stroke="rgb(254,255,255)" stroke-width="1" opacity="1" d="M 139.5 103 L 142 105.5 L 141.5 108 L 136 105.5 L 140 104.5 L 139.5 103 Z " /><path fill="rgb(254,255,255)" stroke="rgb(254,255,255)" stroke-width="1" opacity="1" d="M 144.5 107 L 145.5 109 Q 142.7 109.7 144.5 107 Z " /><path fill="rgb(254,255,255)" stroke="rgb(254,255,255)" stroke-width="1" opacity="1" d="M 136.5 109 L 137.5 111 L 136.5 109 Z " /><path fill="rgb(254,255,255)" stroke="rgb(254,255,255)" stroke-width="1" opacity="1" d="M 86.5 116 L 88 119 Q 82.8 117.3 84 121 L 88 121.5 L 83.5 124 L 81.5 123 L 79.5 124 L 81 121.5 Q 81.8 119.3 79.5 120 L 79.5 119 L 82.5 118 L 84.5 118 L 87 117.5 L 86.5 116 Z " /><path fill="rgb(254,255,255)" stroke="rgb(254,255,255)" stroke-width="1" opacity="1" d="M 90.5 116 L 93 116.5 L 90.5 117 L 90.5 116 Z " /><path fill="rgb(254,255,255)" stroke="rgb(254,255,255)" stroke-width="1" opacity="1" d="M 95.5 116 L 96 118 L 103.5 117 L 103.5 118 L 96.5 119 L 94.5 119 L 93 118.5 L 95 118 L 95.5 116 Z " /><path fill="rgb(254,255,255)" stroke="rgb(254,255,255)" stroke-width="1" opacity="1" d="M 46 131 Q 48.7 129.9 48 132.5 L 48 134.5 L 46.5 137 L 47 135.5 L 46 131 Z " /><path fill="rgb(254,255,255)" stroke="rgb(254,255,255)" stroke-width="1" opacity="1" d="M 78.5 133 L 79.5 135 L 77 134.5 L 78.5 133 Z " /><path fill="rgb(254,255,255)" stroke="rgb(254,255,255)" stroke-width="1" opacity="1" d="M 83.5 136 L 84 138 L 82 137.5 L 83.5 136 Z " /><path fill="rgb(254,255,255)" stroke="rgb(254,255,255)" stroke-width="1" opacity="1" d="M 105.5 136 Q 107.8 135.3 107 137.5 L 105.5 136 Z " /><path fill="rgb(254,255,255)" stroke="rgb(254,255,255)" stroke-width="1" opacity="1" d="M 113 136 Q 116 134.8 115 138.5 Q 117.8 140.3 113.5 142 L 113 140.5 L 114 138.5 L 113 136 Z " /><path fill="rgb(254,255,255)" stroke="rgb(254,255,255)" stroke-width="1" opacity="1" d="M 123.5 137 L 126 137.5 L 123.5 138 L 123.5 137 Z " /><path fill="rgb(254,255,255)" stroke="rgb(254,255,255)" stroke-width="1" opacity="1" d="M 104.5 138 L 103.5 140 L 102 139.5 L 104.5 138 Z " /><path fill="rgb(254,255,255)" stroke="rgb(254,255,255)" stroke-width="1" opacity="1" d="M 88.5 141 L 92 141.5 L 88.5 142 L 88.5 141 Z " /><path fill="rgb(254,255,255)" stroke="rgb(254,255,255)" stroke-width="1" opacity="1" d="M 115.5 142 L 117.5 143 Q 119 140.5 120.5 144 L 122 144.5 L 120.5 145 L 116.5 144 L 115.5 142 Z " /><path fill="rgb(254,255,255)" stroke="rgb(254,255,255)" stroke-width="1" opacity="1" d="M 100.5 143 L 108 143.5 L 100.5 144 L 100.5 143 Z " /><path fill="rgb(254,255,255)" stroke="rgb(254,255,255)" stroke-width="1" opacity="1" d="M 108.5 148 L 111 148.5 L 108.5 149 L 108.5 148 Z " /><path fill="rgb(255,255,255)" stroke="rgb(255,255,255)" stroke-width="1" opacity="1" d="M 0 0 L 192 0 L 192 192 L 0 192 L 0 0 Z M 77 27 L 77 30 L 81 30 Q 79 35 84 34 L 84 35 L 81 34 L 79 35 Q 74 36 73 34 Q 68 33 68 36 L 66 35 Q 63 34 64 37 L 57 39 Q 54 44 51 43 L 51 44 L 48 44 Q 49 47 47 46 L 44 52 L 44 51 L 44 46 L 39 55 L 38 54 L 34 58 L 34 68 L 34 70 L 34 71 L 38 71 L 38 73 L 44 73 Q 45 70 43 71 L 43 70 L 46 72 L 46 77 L 48 77 Q 47 82 50 82 L 50 96 L 58 96 L 59 94 L 61 95 L 62 92 L 73 90 L 81 85 L 81 83 Q 83 84 82 81 L 85 78 L 84 77 L 85 73 L 85 71 L 87 69 L 88 62 L 92 60 L 93 60 Q 91 66 95 65 L 96 55 L 100 52 L 101 55 L 101 62 L 99 70 Q 97 76 100 78 Q 97 85 104 83 Q 105 81 106 84 Q 105 86 108 85 L 108 88 L 105 88 L 106 92 L 126 92 L 127 95 L 130 94 L 130 98 L 128 98 L 123 96 L 120 97 L 116 96 L 111 98 Q 112 95 106 96 L 104 96 Q 97 94 96 97 L 94 96 L 91 98 Q 88 99 89 97 L 88 97 L 84 96 L 81 98 L 71 98 L 69 100 L 59 101 L 57 103 L 59 105 L 61 104 L 61 106 L 62 107 L 56 103 L 50 107 Q 52 113 46 111 Q 45 115 48 117 Q 49 120 46 119 L 46 134 L 47 135 Q 45 138 46 145 L 47 147 Q 52 145 51 149 Q 49 150 52 151 L 52 150 L 53 150 L 52 152 L 53 155 L 55 155 L 54 157 L 59 160 L 58 162 L 60 161 L 66 164 L 65 166 L 74 170 L 104 170 Q 105 167 110 168 L 112 168 L 115 169 L 114 168 L 115 165 L 119 163 L 119 165 L 122 164 L 121 163 L 129 160 Q 131 161 130 158 L 135 158 L 134 156 Q 136 152 138 154 L 137 152 L 142 150 L 143 145 L 141 144 L 147 131 Q 146 127 150 129 L 152 117 Q 153 114 157 115 L 157 66 L 156 64 L 156 62 Q 155 59 158 60 L 158 59 Q 155 60 156 58 L 158 58 L 158 56 L 156 56 Q 155 51 157 50 Q 157 44 154 43 L 154 38 L 151 39 L 146 35 L 142 35 L 146 34 L 145 30 Q 137 29 138 32 Q 131 34 130 30 L 123 30 L 123 34 Q 122 36 121 34 Q 118 35 120 37 L 119 36 Q 118 39 114 38 L 114 40 L 111 39 Q 107 42 108 49 L 106 46 L 106 42 L 100 42 L 100 36 L 104 36 L 104 31 Q 108 32 107 29 Q 97 31 92 27 L 77 27 Z M 46 31 Q 44 37 50 35 Q 52 29 46 31 Z M 40 38 Q 42 43 38 42 L 40 45 Q 43 46 42 44 L 46 41 L 40 38 Z M 91 77 L 90 85 L 84 86 L 86 89 L 96 87 L 97 88 L 95 80 Q 96 75 91 77 Z M 36 88 L 35 104 L 36 104 L 36 88 Z M 96 90 Q 95 94 100 92 Q 101 88 96 90 Z M 74 96 L 74 97 L 81 97 L 74 96 Z M 138 161 L 131 168 L 132 169 L 147 169 L 146 163 Q 142 164 140 161 L 138 161 Z M 51 165 L 52 169 L 65 169 Q 66 165 60 167 L 58 167 L 54 167 Q 55 164 51 165 Z M 48 167 L 47 169 L 50 169 L 48 167 Z " /><path fill="rgb(255,255,255)" stroke="rgb(255,255,255)" stroke-width="1" opacity="1" d="M 89.5 30 L 92 30.5 L 89.5 31 L 89.5 30 Z " /><path fill="rgb(255,255,255)" stroke="rgb(255,255,255)" stroke-width="1" opacity="1" d="M 96.5 31 L 100 31.5 L 96.5 32 L 96.5 31 Z " /><path fill="rgb(255,255,255)" stroke="rgb(255,255,255)" stroke-width="1" opacity="1" d="M 126.5 33 L 130 33.5 L 124.5 35 L 124.5 34 L 126.5 33 Z " /><path fill="rgb(255,255,255)" stroke="rgb(255,255,255)" stroke-width="1" opacity="1" d="M 76.5 52 L 81 54 Q 82 57 79 56 L 77.5 53 L 76.5 52 Z " /><path fill="rgb(255,255,255)" stroke="rgb(255,255,255)" stroke-width="1" opacity="1" d="M 115.5 53 L 116.5 55 Q 113.7 55.7 115.5 53 Z " /><path fill="rgb(255,255,255)" stroke="rgb(255,255,255)" stroke-width="1" opacity="1" d="M 127.5 54 L 130 54.5 L 127.5 55 L 127.5 54 Z " /><path fill="rgb(255,255,255)" stroke="rgb(255,255,255)" stroke-width="1" opacity="1" d="M 68.5 66 L 71 66.5 L 68 67 L 67.5 69 L 67 67.5 L 68.5 66 Z " /><path fill="rgb(255,255,255)" stroke="rgb(255,255,255)" stroke-width="1" opacity="1" d="M 69.5 80 L 70.5 82 L 69.5 80 Z " /><path fill="rgb(255,255,255)" stroke="rgb(255,255,255)" stroke-width="1" opacity="1" d="M 123.5 98 L 126 98.5 L 123.5 99 L 123.5 98 Z " /><path fill="rgb(255,255,255)" stroke="rgb(255,255,255)" stroke-width="1" opacity="1" d="M 147.5 110 L 147 111.5 L 146.5 113 L 146 111.5 L 147.5 110 Z " /><path fill="rgb(255,255,255)" stroke="rgb(255,255,255)" stroke-width="1" opacity="1" d="M 100.5 123 L 104 123.5 L 100.5 124 L 100.5 123 Z " /><path fill="rgb(255,255,255)" stroke="rgb(255,255,255)" stroke-width="1" opacity="1" d="M 82.5 136 L 83 138.5 L 84 141.5 L 82 142 Q 83.5 138.3 80.5 139 L 82.5 136 Z " /><path fill="rgb(255,255,255)" stroke="rgb(255,255,255)" stroke-width="1" opacity="1" d="M 124.5 141 L 125.5 143 L 124.5 141 Z " /><path fill="rgb(255,255,255)" stroke="rgb(255,255,255)" stroke-width="1" opacity="1" d="M 90.5 149 L 94 149.5 L 90.5 150 L 90.5 149 Z " /><path fill="rgb(96,95,98)" stroke="rgb(96,95,98)" stroke-width="1" opacity="1" d="M 127.5 37 L 135 37.5 L 127.5 38 L 127.5 37 Z " /><path fill="rgb(96,95,98)" stroke="rgb(96,95,98)" stroke-width="1" opacity="1" d="M 137.5 38 L 146 42.5 L 151 50.5 L 150 50.5 L 145 42 L 137.5 39 L 137.5 38 Z " /><path fill="rgb(96,95,98)" stroke="rgb(96,95,98)" stroke-width="1" opacity="1" d="M 118.5 39 L 121 39.5 L 115 42.5 Q 113.3 47.3 117.5 46 L 117.5 47 Q 111.8 48.8 114 42.5 L 118.5 39 Z " /><path fill="rgb(96,95,98)" stroke="rgb(96,95,98)" stroke-width="1" opacity="1" d="M 63.5 40 L 73 40.5 L 60.5 42 L 47 54.5 L 46.5 56 L 46 54.5 L 47 52 L 63.5 40 Z " /><path fill="rgb(96,95,98)" stroke="rgb(96,95,98)" stroke-width="1" opacity="1" d="M 74.5 41 L 79 45.5 L 79 48.5 L 75.5 50 L 73.5 47 Q 74.6 49.8 78 49 L 78 45.5 L 74.5 41 Z " /><path fill="rgb(96,95,98)" stroke="rgb(96,95,98)" stroke-width="1" opacity="1" d="M 123.5 44 L 135 44.5 L 123.5 45 L 123.5 44 Z " /><path fill="rgb(96,95,98)" stroke="rgb(96,95,98)" stroke-width="1" opacity="1" d="M 65.5 46 L 72 46.5 L 65.5 47 L 65.5 46 Z " /><path fill="rgb(96,95,98)" stroke="rgb(96,95,98)" stroke-width="1" opacity="1" d="M 138.5 46 L 143 52.5 L 141 51.5 L 138.5 46 Z " /><path fill="rgb(96,95,98)" stroke="rgb(96,95,98)" stroke-width="1" opacity="1" d="M 63.5 47 L 61.5 50 L 60 49.5 L 63.5 47 Z " /><path fill="rgb(96,95,98)" stroke="rgb(96,95,98)" stroke-width="1" opacity="1" d="M 58.5 50 L 53 56.5 L 47.5 65 L 45 63.5 L 45.5 58 L 46 64 Q 48.7 65.1 48 62.5 L 58.5 50 Z " /><path fill="rgb(96,95,98)" stroke="rgb(96,95,98)" stroke-width="1" opacity="1" d="M 151.5 52 L 152 54.5 L 150 59 L 148 58.5 L 151.5 52 Z " /><path fill="rgb(96,95,98)" stroke="rgb(96,95,98)" stroke-width="1" opacity="1" d="M 143.5 54 L 147 59.5 L 145.5 59 Q 143.3 59.8 144 57.5 L 143.5 54 Z " /><path fill="rgb(96,95,98)" stroke="rgb(96,95,98)" stroke-width="1" opacity="1" d="M 120.5 70 L 125 73.5 L 124 80 Q 118.6 81.5 117 78.5 L 116 72 L 120.5 70 Z M 121 71 L 117 74 L 118 78 Q 117 81 123 79 Q 125 78 124 74 L 121 71 Z " /><path fill="rgb(96,95,98)" stroke="rgb(96,95,98)" stroke-width="1" opacity="1" d="M 71.5 71 L 73 71.5 L 71 72 L 69.5 77 L 69 74.5 L 71.5 71 Z " /><path fill="rgb(96,95,98)" stroke="rgb(96,95,98)" stroke-width="1" opacity="1" d="M 77.5 74 L 78 76.5 L 77 76.5 L 77.5 74 Z " /><path fill="rgb(96,95,98)" stroke="rgb(96,95,98)" stroke-width="1" opacity="1" d="M 72.5 79 L 75 79.5 L 72.5 80 L 72.5 79 Z " /><path fill="rgb(96,95,98)" stroke="rgb(96,95,98)" stroke-width="1" opacity="1" d="M 104.5 99 L 110 100.5 L 107.5 101 L 104.5 100 L 104.5 99 Z " /><path fill="rgb(96,95,98)" stroke="rgb(96,95,98)" stroke-width="1" opacity="1" d="M 94.5 100 L 99 100.5 L 94.5 101 L 94.5 100 Z " /><path fill="rgb(96,95,98)" stroke="rgb(96,95,98)" stroke-width="1" opacity="1" d="M 91.5 101 L 93 101.5 L 88.5 103 L 88.5 102 L 91.5 101 Z " /><path fill="rgb(96,95,98)" stroke="rgb(96,95,98)" stroke-width="1" opacity="1" d="M 111.5 101 L 114 102.5 L 112.5 103 L 111.5 101 Z " /><path fill="rgb(96,95,98)" stroke="rgb(96,95,98)" stroke-width="1" opacity="1" d="M 85.5 103 L 87 103.5 L 82.5 105 L 82.5 104 L 85.5 103 Z " /><path fill="rgb(96,95,98)" stroke="rgb(96,95,98)" stroke-width="1" opacity="1" d="M 116.5 103 L 124.5 105 L 126 104.5 Q 125.3 106.8 121.5 106 L 116.5 104 L 116.5 103 Z " /><path fill="rgb(96,95,98)" stroke="rgb(96,95,98)" stroke-width="1" opacity="1" d="M 78.5 104 L 80 104.5 L 75.5 107 L 69.5 108 L 69.5 107 L 75.5 106 L 78.5 104 Z " /><path fill="rgb(96,95,98)" stroke="rgb(96,95,98)" stroke-width="1" opacity="1" d="M 127.5 105 L 131 107.5 L 129.5 108 L 127.5 105 Z " /><path fill="rgb(96,95,98)" stroke="rgb(96,95,98)" stroke-width="1" opacity="1" d="M 66.5 108 L 68 108.5 L 66 109 L 57 123.5 L 56.5 128 L 56 123.5 L 63 111 Q 65.7 112.1 65 109.5 L 66.5 108 Z " /><path fill="rgb(96,95,98)" stroke="rgb(96,95,98)" stroke-width="1" opacity="1" d="M 132.5 108 L 139 114.5 L 140 119.5 L 139 119.5 L 138 114.5 L 132.5 108 Z " /><path fill="rgb(96,95,98)" stroke="rgb(96,95,98)" stroke-width="1" opacity="1" d="M 92.5 109 L 106 109.5 L 89.5 111 L 89.5 110 L 92.5 109 Z " /><path fill="rgb(96,95,98)" stroke="rgb(96,95,98)" stroke-width="1" opacity="1" d="M 114.5 109 L 119 109.5 L 114.5 110 L 114.5 109 Z " /><path fill="rgb(96,95,98)" stroke="rgb(96,95,98)" stroke-width="1" opacity="1" d="M 107.5 110 L 113 110.5 L 107.5 111 L 107.5 110 Z " /><path fill="rgb(96,95,98)" stroke="rgb(96,95,98)" stroke-width="1" opacity="1" d="M 121.5 110 L 129 116.5 L 128.5 118 L 125.5 114 L 121.5 110 Z " /><path fill="rgb(96,95,98)" stroke="rgb(96,95,98)" stroke-width="1" opacity="1" d="M 87.5 111 L 85.5 114 L 83 113.5 L 87.5 111 Z " /><path fill="rgb(96,95,98)" stroke="rgb(96,95,98)" stroke-width="1" opacity="1" d="M 78.5 115 L 78 116.5 Q 78.8 118.8 76.5 118 L 72 121.5 L 68 129.5 L 67 135.5 L 70 137 L 74.5 144 L 85.5 151 L 101.5 151 Q 103.3 148.3 109.5 150 L 109.5 151 L 85.5 152 L 82.5 149 L 72 144 Q 71.2 138.2 66 135.5 L 66 132.5 L 69 127.5 L 69 124.5 L 74.5 118 L 78.5 115 Z " /><path fill="rgb(96,95,98)" stroke="rgb(96,95,98)" stroke-width="1" opacity="1" d="M 129.5 119 L 133 121.5 L 135 126.5 L 132 130.5 L 132 135.5 L 127.5 145 L 128 143.5 Q 127.4 137.4 131 135.5 L 131 130.5 L 134 126.5 L 132 121 L 129.5 119 Z " /><path fill="rgb(96,95,98)" stroke="rgb(96,95,98)" stroke-width="1" opacity="1" d="M 90.5 127 Q 95.6 126.4 97 129.5 L 95.5 130 Q 94.7 127.3 90.5 128 L 86 130.5 Q 85.1 133.9 90.5 132 L 90.5 133 Q 86 134 85 131.5 L 87.5 128 L 90.5 127 Z " /><path fill="rgb(96,95,98)" stroke="rgb(96,95,98)" stroke-width="1" opacity="1" d="M 140.5 129 L 141 136.5 L 139.5 139 L 139 137.5 L 140.5 129 Z " /><path fill="rgb(96,95,98)" stroke="rgb(96,95,98)" stroke-width="1" opacity="1" d="M 99.5 130 L 112 130.5 L 99.5 131 L 99.5 130 Z " /><path fill="rgb(96,95,98)" stroke="rgb(96,95,98)" stroke-width="1" opacity="1" d="M 116.5 130 L 117 134 L 115 133.5 L 116.5 130 Z " /><path fill="rgb(96,95,98)" stroke="rgb(96,95,98)" stroke-width="1" opacity="1" d="M 54.5 132 L 55 135.5 L 54 135.5 L 54.5 132 Z " /><path fill="rgb(96,95,98)" stroke="rgb(96,95,98)" stroke-width="1" opacity="1" d="M 92.5 133 L 98 133.5 L 92.5 134 L 92.5 133 Z " /><path fill="rgb(96,95,98)" stroke="rgb(96,95,98)" stroke-width="1" opacity="1" d="M 102.5 134 L 106 134.5 L 102.5 135 L 102.5 134 Z " /><path fill="rgb(96,95,98)" stroke="rgb(96,95,98)" stroke-width="1" opacity="1" d="M 138.5 140 L 139 143.5 L 138 143.5 L 138.5 140 Z " /><path fill="rgb(96,95,98)" stroke="rgb(96,95,98)" stroke-width="1" opacity="1" d="M 124.5 145 L 126 145.5 L 116.5 150 L 116.5 149 L 124.5 145 Z " /><path fill="rgb(96,95,98)" stroke="rgb(96,95,98)" stroke-width="1" opacity="1" d="M 138.5 145 L 139 146.5 L 137 147.5 L 138.5 145 Z " /><path fill="rgb(96,95,98)" stroke="rgb(96,95,98)" stroke-width="1" opacity="1" d="M 54.5 148 L 57 153.5 L 55 152.5 L 54.5 148 Z " /><path fill="rgb(96,95,98)" stroke="rgb(96,95,98)" stroke-width="1" opacity="1" d="M 136.5 149 L 131.5 155 L 126.5 158 L 127.5 156 L 136.5 149 Z " /><path fill="rgb(96,95,98)" stroke="rgb(96,95,98)" stroke-width="1" opacity="1" d="M 112.5 150 L 115 150.5 L 112.5 151 L 112.5 150 Z " /><path fill="rgb(96,95,98)" stroke="rgb(96,95,98)" stroke-width="1" opacity="1" d="M 57.5 155 L 62 158.5 L 60.5 159 L 57.5 155 Z " /><path fill="rgb(96,95,98)" stroke="rgb(96,95,98)" stroke-width="1" opacity="1" d="M 124.5 158 L 123.5 160 L 120.5 161 L 120.5 160 L 124.5 158 Z " /><path fill="rgb(96,95,98)" stroke="rgb(96,95,98)" stroke-width="1" opacity="1" d="M 66.5 159 L 79 162.5 L 76.5 163 Q 75.3 160.8 70.5 162 L 66.5 160 L 66.5 159 Z " /><path fill="rgb(96,95,98)" stroke="rgb(96,95,98)" stroke-width="1" opacity="1" d="M 116.5 161 L 118 161.5 L 113.5 164 L 113.5 163 L 116.5 161 Z " /><path fill="rgb(96,95,98)" stroke="rgb(96,95,98)" stroke-width="1" opacity="1" d="M 80.5 163 L 85 163.5 L 80.5 164 L 80.5 163 Z " /><path fill="rgb(96,95,98)" stroke="rgb(96,95,98)" stroke-width="1" opacity="1" d="M 104.5 163 L 107 163.5 L 104.5 164 L 104.5 163 Z " /><path fill="rgb(96,95,98)" stroke="rgb(96,95,98)" stroke-width="1" opacity="1" d="M 98.5 164 L 103 164.5 L 98.5 165 L 98.5 164 Z " /><path fill="rgb(188,187,189)" stroke="rgb(188,187,189)" stroke-width="1" opacity="1" d="M 123.5 37 L 127 37.5 L 123.5 38 L 123.5 37 Z " /><path fill="rgb(188,187,189)" stroke="rgb(188,187,189)" stroke-width="1" opacity="1" d="M 135.5 37 L 138 37.5 L 135.5 38 L 135.5 37 Z " /><path fill="rgb(188,187,189)" stroke="rgb(188,187,189)" stroke-width="1" opacity="1" d="M 119.5 38 L 122 38.5 L 119.5 39 L 119.5 38 Z " /><path fill="rgb(188,187,189)" stroke="rgb(188,187,189)" stroke-width="1" opacity="1" d="M 139.5 38 L 144 40.5 L 142.5 40 Q 138.7 39.7 139.5 38 Z " /><path fill="rgb(188,187,189)" stroke="rgb(188,187,189)" stroke-width="1" opacity="1" d="M 66.5 39 Q 74.1 37.9 77 41.5 Q 81.1 43.8 80 50 L 75.5 51 L 70 47.5 L 72.5 47 Q 73 50.5 77.5 50 Q 79.8 49.3 79 45.5 L 74.5 41 L 66.5 40 L 66.5 39 Z " /><path fill="rgb(188,187,189)" stroke="rgb(188,187,189)" stroke-width="1" opacity="1" d="M 115.5 40 L 114 42.5 L 113.5 46 L 113 42.5 L 115.5 40 Z " /><path fill="rgb(188,187,189)" stroke="rgb(188,187,189)" stroke-width="1" opacity="1" d="M 59.5 41 L 57.5 44 L 59.5 41 Z " /><path fill="rgb(188,187,189)" stroke="rgb(188,187,189)" stroke-width="1" opacity="1" d="M 145.5 41 L 151 48.5 L 150 48.5 L 145.5 41 Z " /><path fill="rgb(188,187,189)" stroke="rgb(188,187,189)" stroke-width="1" opacity="1" d="M 55.5 44 L 48.5 52 L 47 51.5 L 55.5 44 Z " /><path fill="rgb(188,187,189)" stroke="rgb(188,187,189)" stroke-width="1" opacity="1" d="M 121.5 45 L 125 45.5 L 121.5 46 L 121.5 45 Z " /><path fill="rgb(188,187,189)" stroke="rgb(188,187,189)" stroke-width="1" opacity="1" d="M 129.5 45 Q 136.8 43.8 139 47.5 L 143 55.5 L 142 55.5 L 140 50 Q 137.3 51.1 138 48.5 Q 136.5 44.5 129.5 46 L 129.5 45 Z " /><path fill="rgb(188,187,189)" stroke="rgb(188,187,189)" stroke-width="1" opacity="1" d="M 118.5 46 L 120 46.5 L 114.5 48 L 114.5 47 L 118.5 46 Z " /><path fill="rgb(188,187,189)" stroke="rgb(188,187,189)" stroke-width="1" opacity="1" d="M 64.5 47 L 67 47.5 L 64 48 Q 65.1 50.7 62.5 50 L 64.5 47 Z " /><path fill="rgb(188,187,189)" stroke="rgb(188,187,189)" stroke-width="1" opacity="1" d="M 59.5 50 L 61 50.5 L 54 56.5 L 48.5 65 L 49 63.5 Q 52.6 55.1 59.5 50 Z " /><path fill="rgb(188,187,189)" stroke="rgb(188,187,189)" stroke-width="1" opacity="1" d="M 46.5 53 L 46 54.5 L 45.5 58 L 45 54.5 L 46.5 53 Z " /><path fill="rgb(188,187,189)" stroke="rgb(188,187,189)" stroke-width="1" opacity="1" d="M 151.5 55 L 152 56.5 L 149.5 60 L 147 59.5 L 150 59 L 151.5 55 Z " /><path fill="rgb(188,187,189)" stroke="rgb(188,187,189)" stroke-width="1" opacity="1" d="M 143.5 57 L 144 59 L 146 59.5 L 144.5 60 L 143.5 57 Z " /><path fill="rgb(188,187,189)" stroke="rgb(188,187,189)" stroke-width="1" opacity="1" d="M 44.5 60 L 46 64.5 L 44 63.5 L 44.5 60 Z " /><path fill="rgb(188,187,189)" stroke="rgb(188,187,189)" stroke-width="1" opacity="1" d="M 71.5 70 L 74 70.5 L 70 72.5 L 69.5 74 L 69 72.5 L 71.5 70 Z " /><path fill="rgb(188,187,189)" stroke="rgb(188,187,189)" stroke-width="1" opacity="1" d="M 75.5 70 L 78 71.5 L 77.5 74 L 77 71 L 75.5 70 Z " /><path fill="rgb(188,187,189)" stroke="rgb(188,187,189)" stroke-width="1" opacity="1" d="M 122.5 70 Q 124.8 69.3 124 71.5 Q 127 72.5 126 77.5 L 124.5 80 L 124 78.5 L 125 73.5 L 122.5 70 Z " /><path fill="rgb(188,187,189)" stroke="rgb(188,187,189)" stroke-width="1" opacity="1" d="M 115.5 72 Q 115.3 77.7 118.5 80 L 123 80.5 L 118.5 81 Q 113.5 78.7 115.5 72 Z " /><path fill="rgb(188,187,189)" stroke="rgb(188,187,189)" stroke-width="1" opacity="1" d="M 69.5 77 L 70 79 L 72 79.5 L 70.5 80 L 69.5 77 Z " /><path fill="rgb(188,187,189)" stroke="rgb(188,187,189)" stroke-width="1" opacity="1" d="M 77.5 77 L 78 78.5 L 75.5 80 L 75.5 79 Q 78 79.7 77.5 77 Z " /><path fill="rgb(188,187,189)" stroke="rgb(188,187,189)" stroke-width="1" opacity="1" d="M 97.5 99 L 104 99.5 L 97.5 100 L 97.5 99 Z " /><path fill="rgb(188,187,189)" stroke="rgb(188,187,189)" stroke-width="1" opacity="1" d="M 110.5 100 L 113 101.5 L 111.5 101 L 110.5 100 Z " /><path fill="rgb(188,187,189)" stroke="rgb(188,187,189)" stroke-width="1" opacity="1" d="M 85.5 102 L 88 102.5 L 83.5 104 L 83.5 103 L 85.5 102 Z " /><path fill="rgb(188,187,189)" stroke="rgb(188,187,189)" stroke-width="1" opacity="1" d="M 114.5 102 L 118 102.5 L 114.5 103 L 114.5 102 Z " /><path fill="rgb(188,187,189)" stroke="rgb(188,187,189)" stroke-width="1" opacity="1" d="M 119.5 103 L 125 104.5 L 121.5 105 L 119.5 103 Z " /><path fill="rgb(188,187,189)" stroke="rgb(188,187,189)" stroke-width="1" opacity="1" d="M 76.5 104 L 78 104.5 Q 76.3 106.8 71.5 106 L 65 109.5 L 63 112.5 L 56.5 123 L 57 121.5 L 61 112.5 L 66.5 107 L 76.5 104 Z " /><path fill="rgb(188,187,189)" stroke="rgb(188,187,189)" stroke-width="1" opacity="1" d="M 126.5 104 L 132 107.5 L 130.5 107 Q 125.8 106.2 126.5 104 Z " /><path fill="rgb(188,187,189)" stroke="rgb(188,187,189)" stroke-width="1" opacity="1" d="M 133.5 108 L 140 115.5 L 139 115.5 L 133.5 108 Z " /><path fill="rgb(188,187,189)" stroke="rgb(188,187,189)" stroke-width="1" opacity="1" d="M 92.5 110 L 94 110.5 L 85.5 115 L 82.5 115 L 82.5 114 L 85.5 114 L 88.5 111 L 92.5 110 Z " /><path fill="rgb(188,187,189)" stroke="rgb(188,187,189)" stroke-width="1" opacity="1" d="M 95.5 110 Q 105.2 108.3 110 111.5 L 107.5 112 L 106.5 111 L 95.5 111 L 95.5 110 Z " /><path fill="rgb(188,187,189)" stroke="rgb(188,187,189)" stroke-width="1" opacity="1" d="M 113.5 110 L 116 110.5 L 113.5 111 L 113.5 110 Z " /><path fill="rgb(188,187,189)" stroke="rgb(188,187,189)" stroke-width="1" opacity="1" d="M 117.5 110 L 120.5 110 L 128 116.5 L 130 120.5 L 127 118.5 L 125.5 115 L 120.5 111 L 117.5 111 L 117.5 110 Z " /><path fill="rgb(188,187,189)" stroke="rgb(188,187,189)" stroke-width="1" opacity="1" d="M 79.5 115 L 81 115.5 L 79 116 L 77.5 119 L 73 121.5 L 70.5 127 L 70 124.5 L 74.5 119 L 78 118 L 79.5 115 Z " /><path fill="rgb(188,187,189)" stroke="rgb(188,187,189)" stroke-width="1" opacity="1" d="M 140.5 117 Q 143.5 124.5 142 136.5 L 140 137.5 L 141 136.5 L 141 122.5 Q 138.7 121.1 140.5 117 Z " /><path fill="rgb(188,187,189)" stroke="rgb(188,187,189)" stroke-width="1" opacity="1" d="M 55.5 124 L 56 128.5 L 54.5 132 L 54 129.5 L 55.5 124 Z " /><path fill="rgb(188,187,189)" stroke="rgb(188,187,189)" stroke-width="1" opacity="1" d="M 91.5 126 Q 96.8 125.2 97.5 129 L 105 129.5 L 97.5 130 L 91.5 127 L 91.5 126 Z " /><path fill="rgb(188,187,189)" stroke="rgb(188,187,189)" stroke-width="1" opacity="1" d="M 133.5 126 L 132 128.5 L 131 135.5 L 128.5 140 L 128 138.5 Q 131 136.5 130 130.5 L 133.5 126 Z " /><path fill="rgb(188,187,189)" stroke="rgb(188,187,189)" stroke-width="1" opacity="1" d="M 69.5 128 L 69 129.5 L 68.5 131 L 68 129.5 L 69.5 128 Z " /><path fill="rgb(188,187,189)" stroke="rgb(188,187,189)" stroke-width="1" opacity="1" d="M 85.5 128 L 87 128.5 L 85 131.5 Q 86.6 134.4 92 133.5 L 86.5 134 L 84 133 Q 83 129.2 85.5 128 Z " /><path fill="rgb(188,187,189)" stroke="rgb(188,187,189)" stroke-width="1" opacity="1" d="M 110.5 129 Q 116.5 127.5 118 130.5 L 119 132.5 Q 114.6 138.1 102.5 136 L 96 134.5 L 101.5 134 L 102.5 135 L 113.5 135 L 117 134 L 117 130 L 110.5 130 L 110.5 129 Z " /><path fill="rgb(188,187,189)" stroke="rgb(188,187,189)" stroke-width="1" opacity="1" d="M 67.5 132 L 68 136 L 71 137.5 L 72.5 140 L 74 140 Q 72.5 143.7 75.5 143 L 78.5 147 L 73 142.5 L 70 137 L 67 135.5 L 67.5 132 Z " /><path fill="rgb(188,187,189)" stroke="rgb(188,187,189)" stroke-width="1" opacity="1" d="M 53.5 133 L 54 140.5 L 53 140.5 L 53.5 133 Z " /><path fill="rgb(188,187,189)" stroke="rgb(188,187,189)" stroke-width="1" opacity="1" d="M 139.5 139 L 140 145.5 L 139 145.5 L 139.5 139 Z " /><path fill="rgb(188,187,189)" stroke="rgb(188,187,189)" stroke-width="1" opacity="1" d="M 127.5 141 L 128 143.5 L 123.5 146 L 124.5 144 Q 128.5 145.1 127.5 141 Z " /><path fill="rgb(188,187,189)" stroke="rgb(188,187,189)" stroke-width="1" opacity="1" d="M 53.5 142 L 54 148.5 L 53 148.5 L 53.5 142 Z " /><path fill="rgb(188,187,189)" stroke="rgb(188,187,189)" stroke-width="1" opacity="1" d="M 120.5 146 L 122 146.5 L 117.5 149 L 117.5 148 L 120.5 146 Z " /><path fill="rgb(188,187,189)" stroke="rgb(188,187,189)" stroke-width="1" opacity="1" d="M 81.5 147 L 85 148.5 Q 84.3 150.8 86.5 150 L 86.5 151 L 81.5 148 L 81.5 147 Z " /><path fill="rgb(188,187,189)" stroke="rgb(188,187,189)" stroke-width="1" opacity="1" d="M 138.5 147 L 137.5 149 L 138.5 147 Z " /><path fill="rgb(188,187,189)" stroke="rgb(188,187,189)" stroke-width="1" opacity="1" d="M 101.5 149 L 105 149.5 L 100.5 151 L 101.5 149 Z " /><path fill="rgb(188,187,189)" stroke="rgb(188,187,189)" stroke-width="1" opacity="1" d="M 113.5 149 L 116 149.5 L 113.5 150 L 113.5 149 Z " /><path fill="rgb(188,187,189)" stroke="rgb(188,187,189)" stroke-width="1" opacity="1" d="M 136.5 150 L 132.5 155 L 136.5 150 Z " /><path fill="rgb(188,187,189)" stroke="rgb(188,187,189)" stroke-width="1" opacity="1" d="M 55.5 153 L 60 158.5 L 56 155.5 L 55.5 153 Z " /><path fill="rgb(188,187,189)" stroke="rgb(188,187,189)" stroke-width="1" opacity="1" d="M 130.5 155 L 129.5 157 L 130.5 155 Z " /><path fill="rgb(188,187,189)" stroke="rgb(188,187,189)" stroke-width="1" opacity="1" d="M 127.5 157 L 126.5 159 L 124.5 160 L 125.5 158 L 127.5 157 Z " /><path fill="rgb(188,187,189)" stroke="rgb(188,187,189)" stroke-width="1" opacity="1" d="M 61.5 159 L 67.5 160 L 72 162.5 L 70.5 163 L 67.5 161 L 61.5 160 L 61.5 159 Z " /><path fill="rgb(188,187,189)" stroke="rgb(188,187,189)" stroke-width="1" opacity="1" d="M 118.5 161 L 121 161.5 L 118.5 162 L 118.5 161 Z " /><path fill="rgb(188,187,189)" stroke="rgb(188,187,189)" stroke-width="1" opacity="1" d="M 74.5 162 L 82 164.5 L 80.5 165 L 75.5 164 L 74.5 162 Z " /><path fill="rgb(188,187,189)" stroke="rgb(188,187,189)" stroke-width="1" opacity="1" d="M 116.5 162 L 114.5 165 L 103 164.5 L 114.5 164 L 116.5 162 Z " /><path fill="rgb(188,187,189)" stroke="rgb(188,187,189)" stroke-width="1" opacity="1" d="M 83.5 164 L 90.5 165 Q 92 162.5 97.5 164 L 97.5 165 L 86.5 166 L 83.5 165 L 83.5 164 Z " /><path fill="rgb(188,187,189)" stroke="rgb(188,187,189)" stroke-width="1" opacity="1" d="M 99.5 165 L 102 165.5 L 99.5 166 L 99.5 165 Z " /><path fill="rgb(28,26,29)" stroke="rgb(28,26,29)" stroke-width="1" opacity="1" d="M 124.5 38 L 130 38.5 L 124.5 39 L 124.5 38 Z " /><path fill="rgb(28,26,29)" stroke="rgb(28,26,29)" stroke-width="1" opacity="1" d="M 131.5 38 L 137 38.5 L 131.5 39 L 131.5 38 Z " /><path fill="rgb(28,26,29)" stroke="rgb(28,26,29)" stroke-width="1" opacity="1" d="M 118.5 40 L 120 40.5 L 115.5 43 L 116.5 41 L 118.5 40 Z " /><path fill="rgb(28,26,29)" stroke="rgb(28,26,29)" stroke-width="1" opacity="1" d="M 140.5 40 L 145 42 L 151 51.5 L 151 54.5 L 147.5 59 L 145 57.5 L 139 46.5 L 142 48.5 L 146 58 Q 148.7 59.1 148 56.5 L 150 52.5 L 145.5 45 L 144 45.5 Q 146.7 43.8 142.5 42 L 140.5 40 Z " /><path fill="rgb(28,26,29)" stroke="rgb(28,26,29)" stroke-width="1" opacity="1" d="M 72.5 41 L 78 45.5 L 77.5 47 L 76.5 45 L 75 45.5 Q 76.1 42.2 73.5 43 L 72.5 41 Z " /><path fill="rgb(28,26,29)" stroke="rgb(28,26,29)" stroke-width="1" opacity="1" d="M 60.5 42 L 62 42.5 L 58.5 45 L 60.5 42 Z " /><path fill="rgb(28,26,29)" stroke="rgb(28,26,29)" stroke-width="1" opacity="1" d="M 119.5 44 L 123 44.5 L 117.5 46 L 117.5 45 L 119.5 44 Z " /><path fill="rgb(28,26,29)" stroke="rgb(28,26,29)" stroke-width="1" opacity="1" d="M 135.5 44 Q 138.8 42.9 138 45.5 L 136.5 45 L 135.5 44 Z " /><path fill="rgb(28,26,29)" stroke="rgb(28,26,29)" stroke-width="1" opacity="1" d="M 56.5 45 L 48 54.5 L 46.5 62 L 46 56.5 L 56.5 45 Z " /><path fill="rgb(28,26,29)" stroke="rgb(28,26,29)" stroke-width="1" opacity="1" d="M 66.5 45 L 71 45.5 L 66.5 46 L 66.5 45 Z " /><path fill="rgb(28,26,29)" stroke="rgb(28,26,29)" stroke-width="1" opacity="1" d="M 63.5 46 L 65 46.5 Q 56.8 49.8 52 56.5 L 48.5 62 L 48 60.5 L 58.5 49 L 63.5 46 Z " /><path fill="rgb(28,26,29)" stroke="rgb(28,26,29)" stroke-width="1" opacity="1" d="M 72.5 46 L 76 47 L 75.5 49 L 72.5 46 Z " /><path fill="rgb(28,26,29)" stroke="rgb(28,26,29)" stroke-width="1" opacity="1" d="M 73.5 71 L 76 71.5 L 71 74.5 L 71 78 L 76 78 L 76.5 73 L 77 77.5 Q 76 80 71.5 79 Q 69.3 78.3 70 74.5 L 71 72 L 73.5 71 Z " /><path fill="rgb(28,26,29)" stroke="rgb(28,26,29)" stroke-width="1" opacity="1" d="M 120.5 71 L 124 73.5 Q 125 78 122.5 79 L 123 77.5 Q 124 73 121.5 72 L 118 73 Q 117 77.3 120 78.5 L 118 79 L 117 73.5 L 120.5 71 Z " /><path fill="rgb(28,26,29)" stroke="rgb(28,26,29)" stroke-width="1" opacity="1" d="M 103.5 100 L 107 100.5 L 103.5 101 L 103.5 100 Z " /><path fill="rgb(28,26,29)" stroke="rgb(28,26,29)" stroke-width="1" opacity="1" d="M 93.5 101 L 95 101.5 L 90.5 104 L 91.5 102 L 93.5 101 Z " /><path fill="rgb(28,26,29)" stroke="rgb(28,26,29)" stroke-width="1" opacity="1" d="M 109.5 101 L 116 103.5 L 112.5 104 L 109.5 101 Z " /><path fill="rgb(28,26,29)" stroke="rgb(28,26,29)" stroke-width="1" opacity="1" d="M 87.5 103 L 89 103.5 L 84.5 106 L 76.5 107 L 76.5 106 L 84.5 105 L 87.5 103 Z " /><path fill="rgb(28,26,29)" stroke="rgb(28,26,29)" stroke-width="1" opacity="1" d="M 117.5 104 L 124.5 106 L 126.5 105 L 128.5 108 L 125.5 106 L 121.5 107 Q 117.5 106.5 117.5 104 Z " /><path fill="rgb(28,26,29)" stroke="rgb(28,26,29)" stroke-width="1" opacity="1" d="M 68.5 108 L 70 108.5 L 64 113.5 L 65 114.5 L 61 118.5 L 57.5 124 L 59 121.5 L 66 109 L 68.5 108 Z " /><path fill="rgb(28,26,29)" stroke="rgb(28,26,29)" stroke-width="1" opacity="1" d="M 92.5 108 L 91.5 110 L 92.5 108 Z " /><path fill="rgb(28,26,29)" stroke="rgb(28,26,29)" stroke-width="1" opacity="1" d="M 115.5 108 L 118 108.5 L 115.5 109 L 115.5 108 Z " /><path fill="rgb(28,26,29)" stroke="rgb(28,26,29)" stroke-width="1" opacity="1" d="M 130.5 108 L 138 114.5 L 139 118.5 L 138 118.5 L 135.5 113 L 133 111.5 L 131.5 109 L 130.5 108 Z " /><path fill="rgb(28,26,29)" stroke="rgb(28,26,29)" stroke-width="1" opacity="1" d="M 106.5 109 L 114 109.5 L 106.5 110 L 106.5 109 Z " /><path fill="rgb(28,26,29)" stroke="rgb(28,26,29)" stroke-width="1" opacity="1" d="M 119.5 109 L 124 110 Q 122.9 112.7 125.5 112 L 130 116.5 L 130 119 L 134 121.5 L 135 125.5 L 134 125.5 L 131.5 120 L 129 118.5 Q 129.5 113.5 125.5 113 L 119.5 110 L 119.5 109 Z " /><path fill="rgb(28,26,29)" stroke="rgb(28,26,29)" stroke-width="1" opacity="1" d="M 86.5 110 L 89 110.5 L 78.5 115 L 71 121.5 L 67 129.5 L 66 135.5 Q 71.2 138.3 72 144 L 74 144.5 L 72.5 145 L 65 135.5 L 65 132.5 L 68 127.5 L 68 124.5 L 75.5 116 L 86.5 110 Z " /><path fill="rgb(28,26,29)" stroke="rgb(28,26,29)" stroke-width="1" opacity="1" d="M 139.5 120 Q 141.8 122.8 141 128.5 L 140 128.5 L 139.5 120 Z " /><path fill="rgb(28,26,29)" stroke="rgb(28,26,29)" stroke-width="1" opacity="1" d="M 134.5 127 L 135 128.5 Q 132.3 129.8 132.5 134 L 132 130.5 L 134.5 127 Z " /><path fill="rgb(28,26,29)" stroke="rgb(28,26,29)" stroke-width="1" opacity="1" d="M 56.5 128 L 57 130.5 L 55.5 135 L 55 131.5 L 56.5 128 Z " /><path fill="rgb(28,26,29)" stroke="rgb(28,26,29)" stroke-width="1" opacity="1" d="M 90.5 128 Q 94.3 127.3 95 129.5 L 93.5 129 L 87 130.5 L 96 132.5 L 91.5 133 L 86 132 L 87.5 129 L 90.5 128 Z " /><path fill="rgb(28,26,29)" stroke="rgb(28,26,29)" stroke-width="1" opacity="1" d="M 96.5 130 L 99 130.5 L 96.5 131 L 96.5 130 Z " /><path fill="rgb(28,26,29)" stroke="rgb(28,26,29)" stroke-width="1" opacity="1" d="M 112.5 130 L 116 130.5 L 112.5 131 L 112.5 130 Z " /><path fill="rgb(28,26,29)" stroke="rgb(28,26,29)" stroke-width="1" opacity="1" d="M 139.5 130 L 140 136.5 L 137.5 143 L 137 140.5 Q 140 137 139.5 130 Z " /><path fill="rgb(28,26,29)" stroke="rgb(28,26,29)" stroke-width="1" opacity="1" d="M 107.5 131 L 111 131.5 L 107.5 132 L 107.5 131 Z " /><path fill="rgb(28,26,29)" stroke="rgb(28,26,29)" stroke-width="1" opacity="1" d="M 98.5 133 L 104 133.5 L 98.5 134 L 98.5 133 Z " /><path fill="rgb(28,26,29)" stroke="rgb(28,26,29)" stroke-width="1" opacity="1" d="M 106.5 134 L 112 134.5 L 106.5 135 L 106.5 134 Z " /><path fill="rgb(28,26,29)" stroke="rgb(28,26,29)" stroke-width="1" opacity="1" d="M 54.5 136 L 55 147.5 L 61 157.5 L 57 154.5 L 54 147.5 L 54.5 136 Z " /><path fill="rgb(28,26,29)" stroke="rgb(28,26,29)" stroke-width="1" opacity="1" d="M 131.5 136 L 132 138.5 L 127.5 146 L 115.5 152 L 102.5 152 L 102.5 151 L 118.5 150 L 129 143.5 Q 128.5 138 131.5 136 Z " /><path fill="rgb(28,26,29)" stroke="rgb(28,26,29)" stroke-width="1" opacity="1" d="M 75.5 145 L 77.5 148 L 75.5 145 Z " /><path fill="rgb(28,26,29)" stroke="rgb(28,26,29)" stroke-width="1" opacity="1" d="M 137.5 146 L 137 147.5 L 131.5 154 L 136 148.5 L 137.5 146 Z " /><path fill="rgb(28,26,29)" stroke="rgb(28,26,29)" stroke-width="1" opacity="1" d="M 79.5 148 L 85 151.5 L 83.5 152 L 79.5 148 Z " /><path fill="rgb(28,26,29)" stroke="rgb(28,26,29)" stroke-width="1" opacity="1" d="M 129.5 154 L 128.5 156 L 123.5 159 L 124.5 157 L 129.5 154 Z " /><path fill="rgb(28,26,29)" stroke="rgb(28,26,29)" stroke-width="1" opacity="1" d="M 68.5 159 L 84 162.5 L 79.5 163 Q 76.8 160.2 70.5 161 L 68.5 159 Z " /><path fill="rgb(28,26,29)" stroke="rgb(28,26,29)" stroke-width="1" opacity="1" d="M 120.5 159 L 122 159.5 L 116.5 161 L 114.5 163 L 114 161 L 120.5 159 Z " /><path fill="rgb(28,26,29)" stroke="rgb(28,26,29)" stroke-width="1" opacity="1" d="M 103.5 162 L 113 163.5 L 107.5 164 L 104.5 163 L 103.5 164 L 95.5 164 L 95.5 163 Q 101.7 164.8 103.5 162 Z " /><path fill="rgb(28,26,29)" stroke="rgb(28,26,29)" stroke-width="1" opacity="1" d="M 85.5 163 L 89.5 164 L 92.5 163 L 92.5 164 L 88.5 165 L 85.5 164 L 85.5 163 Z " /><path fill="rgb(243,242,244)" stroke="rgb(243,242,244)" stroke-width="1" opacity="1" d="M 126.5 36 L 131 36.5 L 126.5 37 L 126.5 36 Z " /><path fill="rgb(243,242,244)" stroke="rgb(243,242,244)" stroke-width="1" opacity="1" d="M 77 37 L 80 38.5 L 79.5 40 L 77 39 L 77 37 Z " /><path fill="rgb(243,242,244)" stroke="rgb(243,242,244)" stroke-width="1" opacity="1" d="M 66.5 38 L 68 38.5 L 62.5 40 L 62.5 39 L 66.5 38 Z " /><path fill="rgb(243,242,244)" stroke="rgb(243,242,244)" stroke-width="1" opacity="1" d="M 73.5 39 Q 77.5 38.5 78 41.5 L 82 48.5 L 77.5 52 L 78.5 50 Q 81.9 50.9 80 45.5 L 75.5 40 Q 72.5 40.5 73.5 39 Z " /><path fill="rgb(243,242,244)" stroke="rgb(243,242,244)" stroke-width="1" opacity="1" d="M 58 40 L 61 40.5 L 47 51 L 45 54.5 L 44.5 60 L 44 54.5 L 45 51 L 49 50 Q 50.1 47.3 47.5 48 L 47.5 47 Q 52 48 53 45.5 L 53.5 43 L 55.5 43 L 58 41.5 L 58 40 Z " /><path fill="rgb(243,242,244)" stroke="rgb(243,242,244)" stroke-width="1" opacity="1" d="M 114.5 40 L 113 42.5 L 114 46.5 L 112 45.5 Q 110.1 40.1 113.5 41 L 114.5 40 Z " /><path fill="rgb(243,242,244)" stroke="rgb(243,242,244)" stroke-width="1" opacity="1" d="M 144.5 40 L 147 41.5 L 145.5 41 L 144.5 40 Z " /><path fill="rgb(243,242,244)" stroke="rgb(243,242,244)" stroke-width="1" opacity="1" d="M 147.5 43 L 150.5 46 Q 154.3 45.3 155 47.5 L 155 50 L 153 50.5 L 153 56 Q 155.7 54.9 155 57.5 L 154 60.5 L 153.5 62 L 152.5 57 L 151.5 61 L 149.5 61 Q 143 62 141 58.5 L 142 56.5 L 141 54.5 L 142 54.5 L 144.5 60 Q 149.8 61.3 151 58.5 L 152 50.5 L 147.5 43 Z " /><path fill="rgb(243,242,244)" stroke="rgb(243,242,244)" stroke-width="1" opacity="1" d="M 125.5 45 L 136 46.5 L 130.5 48 Q 129.8 45.3 125.5 46 L 125.5 45 Z " /><path fill="rgb(243,242,244)" stroke="rgb(243,242,244)" stroke-width="1" opacity="1" d="M 120.5 46 L 124 46.5 L 120 47 L 120.5 49 L 123 48 Q 124.3 51 120.5 50 L 118.5 50 Q 111.5 51.5 112 48.5 L 114.5 48 Q 119.1 48.6 120.5 46 Z " /><path fill="rgb(243,242,244)" stroke="rgb(243,242,244)" stroke-width="1" opacity="1" d="M 67.5 47 L 70 47.5 L 67.5 48 L 67.5 47 Z " /><path fill="rgb(243,242,244)" stroke="rgb(243,242,244)" stroke-width="1" opacity="1" d="M 64 48 L 68 49.5 L 64 50 L 64 48 Z " /><path fill="rgb(243,242,244)" stroke="rgb(243,242,244)" stroke-width="1" opacity="1" d="M 71 48 L 75 50.5 L 73.5 50 Q 69.8 51 71 48 Z " /><path fill="rgb(243,242,244)" stroke="rgb(243,242,244)" stroke-width="1" opacity="1" d="M 137.5 48 L 138 50 Q 140.7 48.9 140 51.5 L 140 53.5 L 139.5 57 L 138 53.5 L 140 52.5 L 138 52 L 137.5 48 Z " /><path fill="rgb(243,242,244)" stroke="rgb(243,242,244)" stroke-width="1" opacity="1" d="M 61.5 50 L 63 50.5 L 57 54.5 Q 57.8 56.8 55.5 56 L 54 56.5 L 61.5 50 Z " /><path fill="rgb(243,242,244)" stroke="rgb(243,242,244)" stroke-width="1" opacity="1" d="M 53.5 58 L 52 60.5 L 50.5 63 L 51 61.5 L 53.5 58 Z " /><path fill="rgb(243,242,244)" stroke="rgb(243,242,244)" stroke-width="1" opacity="1" d="M 44.5 64 L 48.5 65 L 50 64.5 Q 50.9 67.5 46.5 66 L 47.5 68 L 51 67 L 51 69 L 45 69 L 44.5 64 Z " /><path fill="rgb(243,242,244)" stroke="rgb(243,242,244)" stroke-width="1" opacity="1" d="M 124.5 65 L 126 68.5 L 125 68.5 Q 125.8 66.3 123.5 67 L 124.5 65 Z " /><path fill="rgb(243,242,244)" stroke="rgb(243,242,244)" stroke-width="1" opacity="1" d="M 71.5 69 L 76 69.5 Q 70.5 69 69 72.5 Q 67.5 78 70 79.5 L 68.5 79 Q 65.9 79.8 67 76.5 L 68 73.5 L 67.5 72 L 70.5 70 L 71.5 69 Z " /><path fill="rgb(243,242,244)" stroke="rgb(243,242,244)" stroke-width="1" opacity="1" d="M 119.5 69 L 124 69.5 L 118.5 71 L 119.5 69 Z " /><path fill="rgb(243,242,244)" stroke="rgb(243,242,244)" stroke-width="1" opacity="1" d="M 77.5 70 L 79 71.5 L 79 80 L 77 79.5 Q 79.8 77.8 78 71.5 L 77.5 70 Z " /><path fill="rgb(243,242,244)" stroke="rgb(243,242,244)" stroke-width="1" opacity="1" d="M 65.5 71 L 66 74 Q 63.3 75.1 64 72.5 L 65.5 71 Z " /><path fill="rgb(243,242,244)" stroke="rgb(243,242,244)" stroke-width="1" opacity="1" d="M 113.5 71 L 115.5 71 L 117 71.5 L 115 72 Q 113.9 78.2 118 80.5 L 115 78.5 L 114 75 Q 111 76.3 112 72.5 L 113.5 71 Z " /><path fill="rgb(243,242,244)" stroke="rgb(243,242,244)" stroke-width="1" opacity="1" d="M 124.5 71 L 126.5 74 L 124.5 71 Z " /><path fill="rgb(243,242,244)" stroke="rgb(243,242,244)" stroke-width="1" opacity="1" d="M 125.5 78 L 126 79.5 L 123.5 81 L 123.5 80 Q 126 80.7 125.5 78 Z " /><path fill="rgb(243,242,244)" stroke="rgb(243,242,244)" stroke-width="1" opacity="1" d="M 71.5 80 L 76 80.5 L 71.5 81 L 71.5 80 Z " /><path fill="rgb(243,242,244)" stroke="rgb(243,242,244)" stroke-width="1" opacity="1" d="M 106.5 98 L 110 99.5 L 108.5 99 Q 105.5 99.5 106.5 98 Z " /><path fill="rgb(243,242,244)" stroke="rgb(243,242,244)" stroke-width="1" opacity="1" d="M 94.5 99 L 97 99.5 L 94.5 100 L 94.5 99 Z " /><path fill="rgb(243,242,244)" stroke="rgb(243,242,244)" stroke-width="1" opacity="1" d="M 88.5 100 L 92 100.5 L 82.5 104 Q 76.4 103.3 74 105 Q 72.8 102 76.5 103 L 78.5 102 L 81.5 103 L 88.5 100 Z " /><path fill="rgb(243,242,244)" stroke="rgb(243,242,244)" stroke-width="1" opacity="1" d="M 112.5 100 L 114.5 101 L 116 100.5 Q 116.8 103.1 113.5 102 L 112.5 100 Z " /><path fill="rgb(243,242,244)" stroke="rgb(243,242,244)" stroke-width="1" opacity="1" d="M 118.5 100 L 125.5 101 L 127.5 100 L 130 101.5 Q 126.9 103.3 128.5 105 L 118 102.5 L 118.5 100 Z " /><path fill="rgb(243,242,244)" stroke="rgb(243,242,244)" stroke-width="1" opacity="1" d="M 69.5 102 L 72 102.5 L 69.5 103 L 69.5 102 Z " /><path fill="rgb(243,242,244)" stroke="rgb(243,242,244)" stroke-width="1" opacity="1" d="M 130.5 104 L 132.5 107 L 140 112 Q 138.9 114.7 141.5 114 L 142 116.5 L 143 127.5 L 144 128.5 L 142.5 134 L 142 122.5 L 140 114.5 L 133.5 108 L 130 105.5 L 130.5 104 Z " /><path fill="rgb(243,242,244)" stroke="rgb(243,242,244)" stroke-width="1" opacity="1" d="M 64 105 L 67 105.5 L 65 106.5 L 66 107.5 L 61 112.5 L 57.5 120 L 57 117.5 L 65 107.5 L 64 105 Z " /><path fill="rgb(243,242,244)" stroke="rgb(243,242,244)" stroke-width="1" opacity="1" d="M 68 105 L 70 105.5 L 68 106.5 L 68 105 Z " /><path fill="rgb(243,242,244)" stroke="rgb(243,242,244)" stroke-width="1" opacity="1" d="M 141 109 L 144 110.5 L 145 113.5 L 143.5 113 Q 138.9 114.2 141 109 Z " /><path fill="rgb(243,242,244)" stroke="rgb(243,242,244)" stroke-width="1" opacity="1" d="M 94.5 110 L 93.5 112 L 89 113.5 L 89.5 115 L 81.5 116 L 81.5 115 L 85.5 115 L 94.5 110 Z " /><path fill="rgb(243,242,244)" stroke="rgb(243,242,244)" stroke-width="1" opacity="1" d="M 96.5 111 L 96.5 114 Q 94.3 114.8 95 112.5 L 96.5 111 Z " /><path fill="rgb(243,242,244)" stroke="rgb(243,242,244)" stroke-width="1" opacity="1" d="M 101.5 111 L 107 111.5 L 101.5 112 L 101.5 111 Z " /><path fill="rgb(243,242,244)" stroke="rgb(243,242,244)" stroke-width="1" opacity="1" d="M 110.5 111 L 115 111.5 L 114 114 L 120.5 111 L 123.5 115 L 116.5 114 L 112.5 115 L 113 113.5 Q 113.8 110.9 110.5 112 L 110.5 111 Z " /><path fill="rgb(243,242,244)" stroke="rgb(243,242,244)" stroke-width="1" opacity="1" d="M 99.5 113 L 102 113.5 L 99.5 114 L 99.5 113 Z " /><path fill="rgb(243,242,244)" stroke="rgb(243,242,244)" stroke-width="1" opacity="1" d="M 105.5 114 L 108 114.5 L 105.5 115 L 105.5 114 Z " /><path fill="rgb(243,242,244)" stroke="rgb(243,242,244)" stroke-width="1" opacity="1" d="M 125.5 115 L 129.5 121 Q 131.8 120.3 131 122.5 L 133 126.5 L 130 130.5 L 130 135.5 L 126.5 144 L 126 139.5 L 128 136.5 L 127 134 Q 130.3 135.3 129 130.5 L 128 128 L 132 126.5 L 130 126 L 129.5 122 L 128 122.5 L 129 121.5 L 126 118.5 L 125.5 115 Z " /><path fill="rgb(243,242,244)" stroke="rgb(243,242,244)" stroke-width="1" opacity="1" d="M 79.5 116 L 80 117.5 L 78 118.5 L 79.5 116 Z " /><path fill="rgb(243,242,244)" stroke="rgb(243,242,244)" stroke-width="1" opacity="1" d="M 76.5 119 L 74 122.5 L 72 125.5 L 71 125.5 L 74.5 120 L 76.5 119 Z " /><path fill="rgb(243,242,244)" stroke="rgb(243,242,244)" stroke-width="1" opacity="1" d="M 56.5 121 L 56 122.5 L 55.5 124 L 55 122.5 L 56.5 121 Z " /><path fill="rgb(243,242,244)" stroke="rgb(243,242,244)" stroke-width="1" opacity="1" d="M 91.5 125 L 94 125.5 L 89.5 127 L 89.5 126 L 91.5 125 Z " /><path fill="rgb(243,242,244)" stroke="rgb(243,242,244)" stroke-width="1" opacity="1" d="M 95.5 126 Q 97.8 125.3 97 127.5 L 97.5 129 L 95.5 126 Z " /><path fill="rgb(243,242,244)" stroke="rgb(243,242,244)" stroke-width="1" opacity="1" d="M 70.5 127 L 71 128.5 L 69 129.5 L 70.5 127 Z " /><path fill="rgb(243,242,244)" stroke="rgb(243,242,244)" stroke-width="1" opacity="1" d="M 85.5 127 L 88 127.5 L 84 129.5 Q 82.5 133.9 85.5 133 L 85.5 134 L 82 133 L 85.5 127 Z " /><path fill="rgb(243,242,244)" stroke="rgb(243,242,244)" stroke-width="1" opacity="1" d="M 104.5 127 Q 111.3 125.3 113 128.5 L 105.5 130 L 105.5 129 L 110 128.5 L 104.5 128 L 104.5 127 Z " /><path fill="rgb(243,242,244)" stroke="rgb(243,242,244)" stroke-width="1" opacity="1" d="M 116.5 128 L 121 133.5 L 117.5 135 L 119 132.5 L 118 131.5 L 116.5 128 Z " /><path fill="rgb(243,242,244)" stroke="rgb(243,242,244)" stroke-width="1" opacity="1" d="M 53.5 130 L 54 132.5 L 53 132.5 L 53.5 130 Z " /><path fill="rgb(243,242,244)" stroke="rgb(243,242,244)" stroke-width="1" opacity="1" d="M 91.5 134 L 96 134.5 L 91.5 135 L 91.5 134 Z " /><path fill="rgb(243,242,244)" stroke="rgb(243,242,244)" stroke-width="1" opacity="1" d="M 52.5 135 L 53 146.5 L 52 146.5 L 52.5 135 Z " /><path fill="rgb(243,242,244)" stroke="rgb(243,242,244)" stroke-width="1" opacity="1" d="M 71.5 135 L 70.5 137 L 71.5 135 Z " /><path fill="rgb(243,242,244)" stroke="rgb(243,242,244)" stroke-width="1" opacity="1" d="M 71.5 138 L 75 140.5 L 79.5 146 L 82 146.5 L 79.5 147 L 74 143 Q 75.5 139.2 72.5 140 L 71.5 138 Z " /><path fill="rgb(243,242,244)" stroke="rgb(243,242,244)" stroke-width="1" opacity="1" d="M 124.5 143 L 122.5 146 L 121 145.5 L 124.5 143 Z " /><path fill="rgb(243,242,244)" stroke="rgb(243,242,244)" stroke-width="1" opacity="1" d="M 119.5 146 L 118.5 148 L 119.5 146 Z " /><path fill="rgb(243,242,244)" stroke="rgb(243,242,244)" stroke-width="1" opacity="1" d="M 84.5 147 L 87 147.5 L 85.5 150 L 84.5 147 Z " /><path fill="rgb(243,242,244)" stroke="rgb(243,242,244)" stroke-width="1" opacity="1" d="M 100.5 147 Q 105.1 149.9 113 149.5 L 105.5 150 L 101.5 149 L 99.5 151 L 87.5 151 L 87.5 150 L 99.5 150 L 101 148.5 L 100.5 147 Z " /><path fill="rgb(243,242,244)" stroke="rgb(243,242,244)" stroke-width="1" opacity="1" d="M 114.5 148 L 117 148.5 L 114.5 149 L 114.5 148 Z " /><path fill="rgb(243,242,244)" stroke="rgb(243,242,244)" stroke-width="1" opacity="1" d="M 138.5 148 L 137.5 150 L 138.5 148 Z " /><path fill="rgb(243,242,244)" stroke="rgb(243,242,244)" stroke-width="1" opacity="1" d="M 136.5 151 L 133.5 155 L 136.5 151 Z " /><path fill="rgb(243,242,244)" stroke="rgb(243,242,244)" stroke-width="1" opacity="1" d="M 131.5 155 L 130.5 157 L 131.5 155 Z " /><path fill="rgb(243,242,244)" stroke="rgb(243,242,244)" stroke-width="1" opacity="1" d="M 56.5 156 L 58.5 159 L 56.5 156 Z " /><path fill="rgb(243,242,244)" stroke="rgb(243,242,244)" stroke-width="1" opacity="1" d="M 128.5 157 L 127.5 159 L 128.5 157 Z " /><path fill="rgb(243,242,244)" stroke="rgb(243,242,244)" stroke-width="1" opacity="1" d="M 125.5 159 L 124.5 161 L 121.5 162 L 121.5 161 L 125.5 159 Z " /><path fill="rgb(243,242,244)" stroke="rgb(243,242,244)" stroke-width="1" opacity="1" d="M 62.5 160 L 70 162.5 L 68.5 163 L 63.5 162 L 62.5 160 Z " /><path fill="rgb(243,242,244)" stroke="rgb(243,242,244)" stroke-width="1" opacity="1" d="M 72.5 162 Q 74.8 164.8 80 164.5 L 72 166 Q 70.9 163.3 73.5 164 L 73.5 163 L 72.5 162 Z " /><path fill="rgb(243,242,244)" stroke="rgb(243,242,244)" stroke-width="1" opacity="1" d="M 117.5 162 L 120 162.5 L 115.5 165 L 117.5 162 Z " /><path fill="rgb(243,242,244)" stroke="rgb(243,242,244)" stroke-width="1" opacity="1" d="M 98.5 165 L 99.5 168 L 102 166.5 Q 101.1 163.5 105.5 165 L 108 166.5 L 98 169 L 99 166.5 L 98.5 165 Z " /><path fill="rgb(243,242,244)" stroke="rgb(243,242,244)" stroke-width="1" opacity="1" d="M 109.5 165 L 113 165.5 L 109.5 166 L 109.5 165 Z " /><path fill="rgb(243,242,244)" stroke="rgb(243,242,244)" stroke-width="1" opacity="1" d="M 93.5 166 L 96 167.5 L 94.5 167 L 93.5 166 Z " /><path fill="rgb(243,242,244)" stroke="rgb(243,242,244)" stroke-width="1" opacity="1" d="M 78.5 167 L 81 167.5 L 78.5 168 L 78.5 167 Z " /><path fill="rgb(5,4,6)" stroke="rgb(5,4,6)" stroke-width="1" opacity="1" d="M 130.5 38 L 139.5 40 L 147 46.5 L 150 54.5 L 148 58 Q 145 59.3 146 55.5 L 139.5 46 L 138 46 L 137.5 44 L 119.5 44 L 116.5 46 L 115 43.5 L 120.5 40 L 130.5 38 Z " /><path fill="rgb(5,4,6)" stroke="rgb(5,4,6)" stroke-width="1" opacity="1" d="M 65.5 41 L 71.5 41 L 75 43 L 75.5 46 L 77 45.5 L 78 47.5 L 76 48.5 Q 76.8 46.3 74.5 47 Q 72.2 44.3 66.5 45 Q 56.5 48.5 51 56.5 L 48 60.5 L 48 63 L 46 62.5 L 48 54.5 L 57.5 45 L 65.5 41 Z " /><path fill="rgb(5,4,6)" stroke="rgb(5,4,6)" stroke-width="1" opacity="1" d="M 73.5 72 L 76 72 L 76 78 L 71 78 L 71 74.5 L 73.5 72 Z " /><path fill="rgb(5,4,6)" stroke="rgb(5,4,6)" stroke-width="1" opacity="1" d="M 120.5 72 L 123 73.5 Q 124 78 121.5 79 L 118 76.5 Q 116.5 72.1 119.5 73 L 120.5 72 Z " /><path fill="rgb(5,4,6)" stroke="rgb(5,4,6)" stroke-width="1" opacity="1" d="M 95.5 101 L 108.5 101 L 112.5 104 L 116.5 104 Q 118.5 107.5 124.5 107 L 126.5 107 L 133 110.5 L 134.5 113 L 137 114.5 L 140 123.5 L 140 129.5 L 137 142.5 L 138 145.5 L 130.5 154 L 122.5 159 L 114 161 Q 115.1 164.5 107.5 163 L 103.5 162 L 102.5 163 L 90.5 163 L 88.5 164 L 65.5 158 L 63.5 158 Q 59.5 158.5 59 155.5 L 55 147.5 L 55 135.5 Q 57.9 131.9 57 124.5 L 65 114.5 L 64 113.5 L 68.5 109 L 78.5 106 L 84.5 106 L 89.5 103 L 91.5 103 L 95.5 101 Z M 93 108 L 91 110 L 87 110 L 76 116 L 68 125 L 68 128 L 65 133 L 65 136 L 70 141 L 70 143 L 84 152 L 116 152 L 128 146 L 130 144 L 133 131 L 135 129 L 134 122 L 130 119 L 130 117 L 126 112 Q 123 113 124 110 L 118 108 L 115 109 L 94 109 L 93 108 Z " /><path fill="rgb(5,4,6)" stroke="rgb(5,4,6)" stroke-width="1" opacity="1" d="M 90.5 129 Q 95.1 128.4 96.5 131 L 110.5 132 L 116 131 Q 117.3 134 113.5 133 L 112.5 134 L 104.5 134 L 87 130.5 L 90.5 129 Z " /></svg>